<svg width="3960" height="619" viewBox="0 0 3960 619" fill="none" xmlns="http://www.w3.org/2000/svg">
<rect width="3960" height="619" fill="#622829"/>
<path d="M1749.6 597V589.93H1751.06V595.789H1754.11V597H1749.6ZM1759.52 589.93V597H1758.05V589.93H1759.52ZM1763.71 589.93H1765.53L1767.49 594.725H1767.57L1769.53 589.93H1771.35V597H1769.92V592.371H1769.86L1768.02 596.971H1767.04L1765.2 592.352H1765.14V597H1763.71V589.93ZM1780.41 589.93H1782.06L1783.7 592.977H1783.76L1785.38 589.93H1787.04L1784.46 594.48V597H1782.99V594.48L1780.41 589.93ZM1791.26 597H1789.67L1792.12 589.93H1794.01L1796.45 597H1794.88L1794.35 595.369H1791.79L1791.26 597ZM1792.16 594.227H1793.98L1793.09 591.521H1793.04L1792.16 594.227ZM1800.25 597V589.93H1805V591.141H1801.72V592.859H1804.75V594.07H1801.72V595.789H1805.01V597H1800.25ZM1817.27 589.93H1818.72V594.861C1818.72 596.238 1817.76 597.098 1816.33 597.098C1815.05 597.098 1814.04 596.424 1814.05 595.027H1815.52C1815.53 595.584 1815.87 595.916 1816.4 595.916C1816.96 595.916 1817.27 595.555 1817.27 594.861V589.93ZM1824.38 589.93V597H1822.91V589.93H1824.38Z" fill="white"/>
<path d="M1855.6 597V589.93H1857.06V593.064H1857.16L1859.73 589.93H1861.49L1858.86 593.094L1861.52 597H1859.77L1857.8 594.08L1857.06 594.979V597H1855.6ZM1866.69 589.93V597H1865.23V589.93H1866.69ZM1870.88 589.93H1872.7L1874.66 594.725H1874.74L1876.7 589.93H1878.52V597H1877.09V592.371H1877.04L1875.19 596.971H1874.21L1872.37 592.352H1872.31V597H1870.88V589.93ZM1890.84 589.93H1892.29V594.861C1892.29 596.238 1891.33 597.098 1889.9 597.098C1888.62 597.098 1887.62 596.424 1887.62 595.027H1889.09C1889.1 595.584 1889.44 595.916 1889.97 595.916C1890.53 595.916 1890.84 595.555 1890.84 594.861V589.93ZM1900.86 589.93H1902.33V594.52C1902.33 596.072 1901.16 597.098 1899.4 597.098C1897.65 597.098 1896.48 596.072 1896.48 594.52V589.93H1897.95V594.402C1897.95 595.213 1898.53 595.809 1899.4 595.809C1900.29 595.809 1900.86 595.213 1900.86 594.402V589.93ZM1911.83 597V589.93H1916.58V591.141H1913.29V592.859H1916.33V594.07H1913.29V595.789H1916.59V597H1911.83ZM1925.09 589.93H1926.57V594.52C1926.57 596.072 1925.4 597.098 1923.64 597.098C1921.88 597.098 1920.72 596.072 1920.72 594.52V589.93H1922.18V594.402C1922.18 595.213 1922.76 595.809 1923.64 595.809C1924.53 595.809 1925.09 595.213 1925.09 594.402V589.93ZM1936.66 589.93V597H1935.39L1932.28 592.508H1932.22V597H1930.76V589.93H1932.05L1935.13 594.422H1935.2V589.93H1936.66Z" fill="white"/>
<path d="M1968.17 589.93H1969.82L1971.45 592.977H1971.52L1973.14 589.93H1974.79L1972.21 594.48V597H1970.74V594.48L1968.17 589.93ZM1982.92 589.93H1984.4V594.52C1984.4 596.072 1983.23 597.098 1981.47 597.098C1979.71 597.098 1978.55 596.072 1978.55 594.52V589.93H1980.01V594.402C1980.01 595.213 1980.59 595.809 1981.47 595.809C1982.36 595.809 1982.92 595.213 1982.92 594.402V589.93ZM1994.49 589.93V597H1993.22L1990.11 592.508H1990.05V597H1988.59V589.93H1989.88L1992.96 594.422H1993.03V589.93H1994.49ZM2003.71 591.141V589.93H2009.5V591.141H2007.33V597H2005.88V591.141H2003.71ZM2013.72 597H2012.14L2014.59 589.93H2016.48L2018.92 597H2017.35L2016.82 595.369H2014.26L2013.72 597ZM2014.63 594.227H2016.45L2015.56 591.521H2015.51L2014.63 594.227ZM2022.72 597V589.93H2027.46V591.141H2024.18V592.859H2027.22V594.07H2024.18V595.789H2027.47V597H2022.72ZM2036.91 597V589.93H2038.38V593.064H2038.47L2041.04 589.93H2042.81L2040.17 593.094L2042.84 597H2041.08L2039.12 594.08L2038.38 594.979V597H2036.91ZM2046.11 589.93H2047.76L2049.39 592.977H2049.46L2051.08 589.93H2052.73L2050.16 594.48V597H2048.69V594.48L2046.11 589.93ZM2062.54 593.465C2062.54 595.77 2061.11 597.098 2059.24 597.098C2057.36 597.098 2055.93 595.76 2055.93 593.465C2055.93 591.16 2057.36 589.832 2059.24 589.832C2061.11 589.832 2062.54 591.16 2062.54 593.465ZM2061.05 593.465C2061.05 591.951 2060.33 591.131 2059.24 591.131C2058.15 591.131 2057.42 591.951 2057.42 593.465C2057.42 594.979 2058.15 595.799 2059.24 595.799C2060.33 595.799 2061.05 594.979 2061.05 593.465ZM2070.97 589.93H2072.45V594.52C2072.45 596.072 2071.27 597.098 2069.52 597.098C2067.76 597.098 2066.6 596.072 2066.6 594.52V589.93H2068.06V594.402C2068.06 595.213 2068.64 595.809 2069.52 595.809C2070.4 595.809 2070.97 595.213 2070.97 594.402V589.93ZM2082.54 589.93V597H2081.27L2078.16 592.508H2078.1V597H2076.64V589.93H2077.93L2081.01 594.422H2081.08V589.93H2082.54ZM2091.42 592.205C2091.23 591.541 2090.69 591.131 2089.92 591.131C2088.83 591.131 2088.08 591.971 2088.08 593.455C2088.08 594.949 2088.81 595.799 2089.93 595.799C2090.94 595.799 2091.54 595.228 2091.56 594.334H2090.03V593.23H2092.98V594.109C2092.98 595.965 2091.71 597.098 2089.92 597.098C2087.94 597.098 2086.59 595.711 2086.59 593.475C2086.59 591.18 2088.03 589.832 2089.89 589.832C2091.48 589.832 2092.71 590.809 2092.91 592.205H2091.42Z" fill="white"/>
<path d="M2128.43 591.951C2128.38 591.395 2127.93 591.062 2127.21 591.062C2126.47 591.062 2126.06 591.404 2126.05 591.873C2126.04 592.381 2126.58 592.615 2127.18 592.752L2127.82 592.908C2129.03 593.182 2129.94 593.797 2129.94 594.979C2129.94 596.277 2128.92 597.098 2127.2 597.098C2125.49 597.098 2124.4 596.307 2124.36 594.793H2125.79C2125.84 595.506 2126.4 595.867 2127.18 595.867C2127.96 595.867 2128.45 595.506 2128.45 594.979C2128.45 594.5 2128.01 594.275 2127.24 594.08L2126.47 593.895C2125.28 593.602 2124.55 593.006 2124.55 591.971C2124.55 590.682 2125.68 589.832 2127.22 589.832C2128.79 589.832 2129.82 590.701 2129.84 591.951H2128.43ZM2133.89 597V589.93H2135.36V592.859H2138.43V589.93H2139.9V597H2138.43V594.07H2135.36V597H2133.89ZM2145.56 589.93V597H2144.09V589.93H2145.56ZM2155.65 589.93V597H2154.38L2151.27 592.508H2151.21V597H2149.75V589.93H2151.04L2154.12 594.422H2154.19V589.93H2155.65ZM2165.14 597V589.93H2166.61V592.859H2169.67V589.93H2171.15V597H2169.67V594.07H2166.61V597H2165.14ZM2174.91 589.93H2176.56L2178.19 592.977H2178.26L2179.88 589.93H2181.53L2178.95 594.48V597H2177.49V594.48L2174.91 589.93ZM2185.29 597V589.93H2190.04V591.141H2186.76V592.859H2189.79V594.07H2186.76V595.789H2190.05V597H2185.29ZM2200.95 589.93V597H2199.49V589.93H2200.95ZM2211.04 589.93V597H2209.77L2206.67 592.508H2206.61V597H2205.14V589.93H2206.43L2209.52 594.422H2209.59V589.93H2211.04Z" fill="white"/>
<path d="M3185.98 157.648H3195.06L3204.88 181.623H3205.27L3215.08 157.648H3224.16V193H3217.03V169.855H3216.74L3207.51 192.854H3202.63L3193.4 169.758H3193.11V193H3185.98V157.648ZM3251.03 193H3243.12L3255.37 157.648H3264.8L3277 193H3269.14L3266.51 184.846H3253.71L3251.03 193ZM3255.57 179.133H3264.65L3260.21 165.607H3259.96L3255.57 179.133ZM3296.01 193V157.648H3309.88C3317.93 157.648 3322.52 162.189 3322.52 169.172C3322.52 174.006 3320.3 177.521 3316.27 179.23L3323.79 193H3315.69L3308.95 180.451H3303.33V193H3296.01ZM3303.33 174.494H3308.51C3312.85 174.494 3314.95 172.688 3314.95 169.172C3314.95 165.607 3312.85 163.654 3308.51 163.654H3303.33V174.494ZM3419.13 169.025C3418.16 165.705 3415.47 163.654 3411.61 163.654C3406.14 163.654 3402.43 167.854 3402.43 175.275C3402.43 182.746 3406.05 186.994 3411.66 186.994C3416.72 186.994 3419.72 184.138 3419.82 179.67H3412.15V174.152H3426.9V178.547C3426.9 187.824 3420.55 193.488 3411.61 193.488C3401.7 193.488 3394.96 186.555 3394.96 175.373C3394.96 163.898 3402.14 157.16 3411.47 157.16C3419.43 157.16 3425.58 162.043 3426.55 169.025H3419.13ZM3454.59 157.648V193H3447.27V157.648H3454.59ZM3505.04 157.648V193H3498.69L3483.17 170.539H3482.87V193H3475.55V157.648H3481.99L3497.42 180.109H3497.77V157.648H3505.04Z" fill="white"/>
<path d="M3628.98 157.648H3638.06L3647.88 181.623H3648.27L3658.08 157.648H3667.16V193H3660.03V169.855H3659.74L3650.51 192.854H3645.63L3636.4 169.758H3636.11V193H3628.98V157.648ZM3694.03 193H3686.12L3698.37 157.648H3707.8L3720 193H3712.14L3709.51 184.846H3696.71L3694.03 193ZM3698.57 179.133H3707.65L3703.21 165.607H3702.96L3698.57 179.133ZM3739.01 193V157.648H3752.88C3760.93 157.648 3765.52 162.189 3765.52 169.172C3765.52 174.006 3763.3 177.521 3759.27 179.23L3766.79 193H3758.69L3751.95 180.451H3746.33V193H3739.01ZM3746.33 174.494H3751.51C3755.85 174.494 3757.95 172.688 3757.95 169.172C3757.95 165.607 3755.85 163.654 3751.51 163.654H3746.33V174.494ZM3809.09 169.025C3808.11 165.705 3805.42 163.654 3801.57 163.654C3796.1 163.654 3792.39 167.854 3792.39 175.275C3792.39 182.746 3796 186.994 3801.62 186.994C3806.67 186.994 3809.67 184.138 3809.77 179.67H3802.1V174.152H3816.85V178.547C3816.85 187.824 3810.5 193.488 3801.57 193.488C3791.65 193.488 3784.92 186.555 3784.92 175.373C3784.92 163.898 3792.09 157.16 3801.42 157.16C3809.38 157.16 3815.53 162.043 3816.51 169.025H3809.09ZM3844.54 157.648V193H3837.22V157.648H3844.54ZM3894.99 157.648V193H3888.65L3873.12 170.539H3872.83V193H3865.5V157.648H3871.95L3887.38 180.109H3887.72V157.648H3894.99Z" fill="white"/>
<path d="M3186.98 75.6484H3196.06L3205.88 99.623H3206.27L3216.08 75.6484H3225.16V111H3218.03V87.8555H3217.74L3208.51 110.854H3203.63L3194.4 87.7578H3194.11V111H3186.98V75.6484ZM3252.03 111H3244.12L3256.37 75.6484H3265.8L3278 111H3270.14L3267.51 102.846H3254.71L3252.03 111ZM3256.57 97.1328H3265.65L3261.21 83.6074H3260.96L3256.57 97.1328ZM3297.01 111V75.6484H3310.88C3318.93 75.6484 3323.52 80.1895 3323.52 87.1719C3323.52 92.0059 3321.3 95.5215 3317.27 97.2305L3324.79 111H3316.69L3309.95 98.4512H3304.33V111H3297.01ZM3304.33 92.4941H3309.51C3313.85 92.4941 3315.95 90.6875 3315.95 87.1719C3315.95 83.6074 3313.85 81.6543 3309.51 81.6543H3304.33V92.4941ZM3393.61 87.0254C3392.63 83.7051 3389.95 81.6543 3386.09 81.6543C3380.62 81.6543 3376.91 85.8535 3376.91 93.2754C3376.91 100.746 3380.52 104.994 3386.14 104.994C3391.19 104.994 3394.2 102.138 3394.29 97.6699H3386.63V92.1523H3401.37V96.5469C3401.37 105.824 3395.03 111.488 3386.09 111.488C3376.18 111.488 3369.44 104.555 3369.44 93.373C3369.44 81.8984 3376.62 75.1602 3385.94 75.1602C3393.9 75.1602 3400.05 80.043 3401.03 87.0254H3393.61ZM3429.07 75.6484V111H3421.74V75.6484H3429.07ZM3479.52 75.6484V111H3473.17L3457.64 88.5391H3457.35V111H3450.03V75.6484H3456.47L3471.9 98.1094H3472.24V75.6484H3479.52Z" fill="white"/>
<path d="M3629.98 75.6484H3639.06L3648.88 99.623H3649.27L3659.08 75.6484H3668.16V111H3661.03V87.8555H3660.74L3651.51 110.854H3646.63L3637.4 87.7578H3637.11V111H3629.98V75.6484ZM3695.03 111H3687.12L3699.37 75.6484H3708.8L3721 111H3713.14L3710.51 102.846H3697.71L3695.03 111ZM3699.57 97.1328H3708.65L3704.21 83.6074H3703.96L3699.57 97.1328ZM3740.01 111V75.6484H3753.88C3761.93 75.6484 3766.52 80.1895 3766.52 87.1719C3766.52 92.0059 3764.3 95.5215 3760.27 97.2305L3767.79 111H3759.69L3752.95 98.4512H3747.33V111H3740.01ZM3747.33 92.4941H3752.51C3756.85 92.4941 3758.95 90.6875 3758.95 87.1719C3758.95 83.6074 3756.85 81.6543 3752.51 81.6543H3747.33V92.4941ZM3810.09 87.0254C3809.11 83.7051 3806.42 81.6543 3802.57 81.6543C3797.1 81.6543 3793.39 85.8535 3793.39 93.2754C3793.39 100.746 3797 104.994 3802.62 104.994C3807.67 104.994 3810.67 102.138 3810.77 97.6699H3803.1V92.1523H3817.85V96.5469C3817.85 105.824 3811.5 111.488 3802.57 111.488C3792.65 111.488 3785.92 104.555 3785.92 93.373C3785.92 81.8984 3793.09 75.1602 3802.42 75.1602C3810.38 75.1602 3816.53 80.043 3817.51 87.0254H3810.09ZM3845.54 75.6484V111H3838.22V75.6484H3845.54ZM3895.99 75.6484V111H3889.65L3874.12 88.5391H3873.83V111H3866.5V75.6484H3872.95L3888.38 98.1094H3888.72V75.6484H3895.99Z" fill="white"/>
<path d="M3185.98 239.648H3195.06L3204.88 263.623H3205.27L3215.08 239.648H3224.16V275H3217.03V251.855H3216.74L3207.51 274.854H3202.63L3193.4 251.758H3193.11V275H3185.98V239.648ZM3251.03 275H3243.12L3255.37 239.648H3264.8L3277 275H3269.14L3266.51 266.846H3253.71L3251.03 275ZM3255.57 261.133H3264.65L3260.21 247.607H3259.96L3255.57 261.133ZM3296.01 275V239.648H3309.88C3317.93 239.648 3322.52 244.189 3322.52 251.172C3322.52 256.006 3320.3 259.521 3316.27 261.23L3323.79 275H3315.69L3308.95 262.451H3303.33V275H3296.01ZM3303.33 256.494H3308.51C3312.85 256.494 3314.95 254.688 3314.95 251.172C3314.95 247.607 3312.85 245.654 3308.51 245.654H3303.33V256.494ZM3445.66 251.025C3444.68 247.705 3441.99 245.654 3438.14 245.654C3432.67 245.654 3428.96 249.854 3428.96 257.275C3428.96 264.746 3432.57 268.994 3438.19 268.994C3443.24 268.994 3446.24 266.138 3446.34 261.67H3438.67V256.152H3453.42V260.547C3453.42 269.824 3447.07 275.488 3438.14 275.488C3428.22 275.488 3421.49 268.555 3421.49 257.373C3421.49 245.898 3428.66 239.16 3437.99 239.16C3445.95 239.16 3452.1 244.043 3453.08 251.025H3445.66ZM3481.12 239.648V275H3473.79V239.648H3481.12ZM3531.56 239.648V275H3525.22L3509.69 252.539H3509.4V275H3502.07V239.648H3508.52L3523.95 262.109H3524.29V239.648H3531.56Z" fill="white"/>
<path d="M3628.98 239.648H3638.06L3647.88 263.623H3648.27L3658.08 239.648H3667.16V275H3660.03V251.855H3659.74L3650.51 274.854H3645.63L3636.4 251.758H3636.11V275H3628.98V239.648ZM3694.03 275H3686.12L3698.37 239.648H3707.8L3720 275H3712.14L3709.51 266.846H3696.71L3694.03 275ZM3698.57 261.133H3707.65L3703.21 247.607H3702.96L3698.57 261.133ZM3739.01 275V239.648H3752.88C3760.93 239.648 3765.52 244.189 3765.52 251.172C3765.52 256.006 3763.3 259.521 3759.27 261.23L3766.79 275H3758.69L3751.95 262.451H3746.33V275H3739.01ZM3746.33 256.494H3751.51C3755.85 256.494 3757.95 254.688 3757.95 251.172C3757.95 247.607 3755.85 245.654 3751.51 245.654H3746.33V256.494ZM3809.09 251.025C3808.11 247.705 3805.42 245.654 3801.57 245.654C3796.1 245.654 3792.39 249.854 3792.39 257.275C3792.39 264.746 3796 268.994 3801.62 268.994C3806.67 268.994 3809.67 266.138 3809.77 261.67H3802.1V256.152H3816.85V260.547C3816.85 269.824 3810.5 275.488 3801.57 275.488C3791.65 275.488 3784.92 268.555 3784.92 257.373C3784.92 245.898 3792.09 239.16 3801.42 239.16C3809.38 239.16 3815.53 244.043 3816.51 251.025H3809.09ZM3844.54 239.648V275H3837.22V239.648H3844.54ZM3894.99 239.648V275H3888.65L3873.12 252.539H3872.83V275H3865.5V239.648H3871.95L3887.38 262.109H3887.72V239.648H3894.99Z" fill="white"/>
<path d="M3185.98 321.648H3195.06L3204.88 345.623H3205.27L3215.08 321.648H3224.16V357H3217.03V333.855H3216.74L3207.51 356.854H3202.63L3193.4 333.758H3193.11V357H3185.98V321.648ZM3251.03 357H3243.12L3255.37 321.648H3264.8L3277 357H3269.14L3266.51 348.846H3253.71L3251.03 357ZM3255.57 343.133H3264.65L3260.21 329.607H3259.96L3255.57 343.133ZM3296.01 357V321.648H3309.88C3317.93 321.648 3322.52 326.189 3322.52 333.172C3322.52 338.006 3320.3 341.521 3316.27 343.23L3323.79 357H3315.69L3308.95 344.451H3303.33V357H3296.01ZM3303.33 338.494H3308.51C3312.85 338.494 3314.95 336.688 3314.95 333.172C3314.95 329.607 3312.85 327.654 3308.51 327.654H3303.33V338.494ZM3472.18 333.025C3471.2 329.705 3468.52 327.654 3464.66 327.654C3459.19 327.654 3455.48 331.854 3455.48 339.275C3455.48 346.746 3459.09 350.994 3464.71 350.994C3469.76 350.994 3472.77 348.138 3472.86 343.67H3465.2V338.152H3479.94V342.547C3479.94 351.824 3473.6 357.488 3464.66 357.488C3454.75 357.488 3448.01 350.555 3448.01 339.373C3448.01 327.898 3455.19 321.16 3464.51 321.16C3472.47 321.16 3478.62 326.043 3479.6 333.025H3472.18ZM3507.64 321.648V357H3500.31V321.648H3507.64ZM3558.09 321.648V357H3551.74L3536.21 334.539H3535.92V357H3528.6V321.648H3535.04L3550.47 344.109H3550.81V321.648H3558.09Z" fill="white"/>
<path d="M3628.98 321.648H3638.06L3647.88 345.623H3648.27L3658.08 321.648H3667.16V357H3660.03V333.855H3659.74L3650.51 356.854H3645.63L3636.4 333.758H3636.11V357H3628.98V321.648ZM3694.03 357H3686.12L3698.37 321.648H3707.8L3720 357H3712.14L3709.51 348.846H3696.71L3694.03 357ZM3698.57 343.133H3707.65L3703.21 329.607H3702.96L3698.57 343.133ZM3739.01 357V321.648H3752.88C3760.93 321.648 3765.52 326.189 3765.52 333.172C3765.52 338.006 3763.3 341.521 3759.27 343.23L3766.79 357H3758.69L3751.95 344.451H3746.33V357H3739.01ZM3746.33 338.494H3751.51C3755.85 338.494 3757.95 336.688 3757.95 333.172C3757.95 329.607 3755.85 327.654 3751.51 327.654H3746.33V338.494ZM3809.09 333.025C3808.11 329.705 3805.42 327.654 3801.57 327.654C3796.1 327.654 3792.39 331.854 3792.39 339.275C3792.39 346.746 3796 350.994 3801.62 350.994C3806.67 350.994 3809.67 348.138 3809.77 343.67H3802.1V338.152H3816.85V342.547C3816.85 351.824 3810.5 357.488 3801.57 357.488C3791.65 357.488 3784.92 350.555 3784.92 339.373C3784.92 327.898 3792.09 321.16 3801.42 321.16C3809.38 321.16 3815.53 326.043 3816.51 333.025H3809.09ZM3844.54 321.648V357H3837.22V321.648H3844.54ZM3894.99 321.648V357H3888.65L3873.12 334.539H3872.83V357H3865.5V321.648H3871.95L3887.38 344.109H3887.72V321.648H3894.99Z" fill="white"/>
<path d="M3185.98 403.648H3195.06L3204.88 427.623H3205.27L3215.08 403.648H3224.16V439H3217.03V415.855H3216.74L3207.51 438.854H3202.63L3193.4 415.758H3193.11V439H3185.98V403.648ZM3251.03 439H3243.12L3255.37 403.648H3264.8L3277 439H3269.14L3266.51 430.846H3253.71L3251.03 439ZM3255.57 425.133H3264.65L3260.21 411.607H3259.96L3255.57 425.133ZM3296.01 439V403.648H3309.88C3317.93 403.648 3322.52 408.189 3322.52 415.172C3322.52 420.006 3320.3 423.521 3316.27 425.23L3323.79 439H3315.69L3308.95 426.451H3303.33V439H3296.01ZM3303.33 420.494H3308.51C3312.85 420.494 3314.95 418.688 3314.95 415.172C3314.95 411.607 3312.85 409.654 3308.51 409.654H3303.33V420.494ZM3498.7 415.025C3497.73 411.705 3495.04 409.654 3491.18 409.654C3485.71 409.654 3482 413.854 3482 421.275C3482 428.746 3485.62 432.994 3491.23 432.994C3496.29 432.994 3499.29 430.138 3499.39 425.67H3491.72V420.152H3506.47V424.547C3506.47 433.824 3500.12 439.488 3491.18 439.488C3481.27 439.488 3474.53 432.555 3474.53 421.373C3474.53 409.898 3481.71 403.16 3491.04 403.16C3499 403.16 3505.15 408.043 3506.12 415.025H3498.7ZM3534.16 403.648V439H3526.84V403.648H3534.16ZM3584.61 403.648V439H3578.26L3562.74 416.539H3562.44V439H3555.12V403.648H3561.56L3576.99 426.109H3577.34V403.648H3584.61Z" fill="white"/>
<path d="M3186.98 485.648H3196.06L3205.88 509.623H3206.27L3216.08 485.648H3225.16V521H3218.03V497.855H3217.74L3208.51 520.854H3203.63L3194.4 497.758H3194.11V521H3186.98V485.648ZM3252.03 521H3244.12L3256.37 485.648H3265.8L3278 521H3270.14L3267.51 512.846H3254.71L3252.03 521ZM3256.57 507.133H3265.65L3261.21 493.607H3260.96L3256.57 507.133ZM3297.01 521V485.648H3310.88C3318.93 485.648 3323.52 490.189 3323.52 497.172C3323.52 502.006 3321.3 505.521 3317.27 507.23L3324.79 521H3316.69L3309.95 508.451H3304.33V521H3297.01ZM3304.33 502.494H3309.51C3313.85 502.494 3315.95 500.688 3315.95 497.172C3315.95 493.607 3313.85 491.654 3309.51 491.654H3304.33V502.494ZM3526.23 497.025C3525.25 493.705 3522.56 491.654 3518.71 491.654C3513.24 491.654 3509.53 495.854 3509.53 503.275C3509.53 510.746 3513.14 514.994 3518.76 514.994C3523.81 514.994 3526.81 512.138 3526.91 507.67H3519.24V502.152H3533.99V506.547C3533.99 515.824 3527.64 521.488 3518.71 521.488C3508.79 521.488 3502.06 514.555 3502.06 503.373C3502.06 491.898 3509.23 485.16 3518.56 485.16C3526.52 485.16 3532.67 490.043 3533.65 497.025H3526.23ZM3561.69 485.648V521H3554.36V485.648H3561.69ZM3612.13 485.648V521H3605.79L3590.26 498.539H3589.97V521H3582.64V485.648H3589.09L3604.52 508.109H3604.86V485.648H3612.13Z" fill="white"/>
<path d="M3628.98 403.648H3638.06L3647.88 427.623H3648.27L3658.08 403.648H3667.16V439H3660.03V415.855H3659.74L3650.51 438.854H3645.63L3636.4 415.758H3636.11V439H3628.98V403.648ZM3694.03 439H3686.12L3698.37 403.648H3707.8L3720 439H3712.14L3709.51 430.846H3696.71L3694.03 439ZM3698.57 425.133H3707.65L3703.21 411.607H3702.96L3698.57 425.133ZM3739.01 439V403.648H3752.88C3760.93 403.648 3765.52 408.189 3765.52 415.172C3765.52 420.006 3763.3 423.521 3759.27 425.23L3766.79 439H3758.69L3751.95 426.451H3746.33V439H3739.01ZM3746.33 420.494H3751.51C3755.85 420.494 3757.95 418.688 3757.95 415.172C3757.95 411.607 3755.85 409.654 3751.51 409.654H3746.33V420.494ZM3809.09 415.025C3808.11 411.705 3805.42 409.654 3801.57 409.654C3796.1 409.654 3792.39 413.854 3792.39 421.275C3792.39 428.746 3796 432.994 3801.62 432.994C3806.67 432.994 3809.67 430.138 3809.77 425.67H3802.1V420.152H3816.85V424.547C3816.85 433.824 3810.5 439.488 3801.57 439.488C3791.65 439.488 3784.92 432.555 3784.92 421.373C3784.92 409.898 3792.09 403.16 3801.42 403.16C3809.38 403.16 3815.53 408.043 3816.51 415.025H3809.09ZM3844.54 403.648V439H3837.22V403.648H3844.54ZM3894.99 403.648V439H3888.65L3873.12 416.539H3872.83V439H3865.5V403.648H3871.95L3887.38 426.109H3887.72V403.648H3894.99Z" fill="white"/>
<path d="M3629.98 485.648H3639.06L3648.88 509.623H3649.27L3659.08 485.648H3668.16V521H3661.03V497.855H3660.74L3651.51 520.854H3646.63L3637.4 497.758H3637.11V521H3629.98V485.648ZM3695.03 521H3687.12L3699.37 485.648H3708.8L3721 521H3713.14L3710.51 512.846H3697.71L3695.03 521ZM3699.57 507.133H3708.65L3704.21 493.607H3703.96L3699.57 507.133ZM3740.01 521V485.648H3753.88C3761.93 485.648 3766.52 490.189 3766.52 497.172C3766.52 502.006 3764.3 505.521 3760.27 507.23L3767.79 521H3759.69L3752.95 508.451H3747.33V521H3740.01ZM3747.33 502.494H3752.51C3756.85 502.494 3758.95 500.688 3758.95 497.172C3758.95 493.607 3756.85 491.654 3752.51 491.654H3747.33V502.494ZM3810.09 497.025C3809.11 493.705 3806.42 491.654 3802.57 491.654C3797.1 491.654 3793.39 495.854 3793.39 503.275C3793.39 510.746 3797 514.994 3802.62 514.994C3807.67 514.994 3810.67 512.138 3810.77 507.67H3803.1V502.152H3817.85V506.547C3817.85 515.824 3811.5 521.488 3802.57 521.488C3792.65 521.488 3785.92 514.555 3785.92 503.373C3785.92 491.898 3793.09 485.16 3802.42 485.16C3810.38 485.16 3816.53 490.043 3817.51 497.025H3810.09ZM3845.54 485.648V521H3838.22V485.648H3845.54ZM3895.99 485.648V521H3889.65L3874.12 498.539H3873.83V521H3866.5V485.648H3872.95L3888.38 508.109H3888.72V485.648H3895.99Z" fill="white"/>
<path d="M2772.98 157.648H2782.06L2791.88 181.623H2792.27L2802.08 157.648H2811.16V193H2804.03V169.855H2803.74L2794.51 192.854H2789.63L2780.4 169.758H2780.11V193H2772.98V157.648ZM2838.03 193H2830.12L2842.37 157.648H2851.8L2864 193H2856.14L2853.51 184.846H2840.71L2838.03 193ZM2842.57 179.133H2851.65L2847.21 165.607H2846.96L2842.57 179.133ZM2883.01 193V157.648H2896.88C2904.93 157.648 2909.52 162.189 2909.52 169.172C2909.52 174.006 2907.3 177.521 2903.27 179.23L2910.79 193H2902.69L2895.95 180.451H2890.33V193H2883.01ZM2890.33 174.494H2895.51C2899.85 174.494 2901.95 172.688 2901.95 169.172C2901.95 165.607 2899.85 163.654 2895.51 163.654H2890.33V174.494ZM2953.09 169.025C2952.11 165.705 2949.42 163.654 2945.57 163.654C2940.1 163.654 2936.39 167.854 2936.39 175.275C2936.39 182.746 2940 186.994 2945.62 186.994C2950.67 186.994 2953.67 184.138 2953.77 179.67H2946.1V174.152H2960.85V178.547C2960.85 187.824 2954.5 193.488 2945.57 193.488C2935.65 193.488 2928.92 186.555 2928.92 175.373C2928.92 163.898 2936.09 157.16 2945.42 157.16C2953.38 157.16 2959.53 162.043 2960.51 169.025H2953.09ZM2988.54 157.648V193H2981.22V157.648H2988.54ZM3038.99 157.648V193H3032.65L3017.12 170.539H3016.83V193H3009.5V157.648H3015.95L3031.38 180.109H3031.72V157.648H3038.99Z" fill="white"/>
<path d="M2773.98 75.6484H2783.06L2792.88 99.623H2793.27L2803.08 75.6484H2812.16V111H2805.03V87.8555H2804.74L2795.51 110.854H2790.63L2781.4 87.7578H2781.11V111H2773.98V75.6484ZM2839.03 111H2831.12L2843.37 75.6484H2852.8L2865 111H2857.14L2854.51 102.846H2841.71L2839.03 111ZM2843.57 97.1328H2852.65L2848.21 83.6074H2847.96L2843.57 97.1328ZM2884.01 111V75.6484H2897.88C2905.93 75.6484 2910.52 80.1895 2910.52 87.1719C2910.52 92.0059 2908.3 95.5215 2904.27 97.2305L2911.79 111H2903.69L2896.95 98.4512H2891.33V111H2884.01ZM2891.33 92.4941H2896.51C2900.85 92.4941 2902.95 90.6875 2902.95 87.1719C2902.95 83.6074 2900.85 81.6543 2896.51 81.6543H2891.33V92.4941ZM2954.09 87.0254C2953.11 83.7051 2950.42 81.6543 2946.57 81.6543C2941.1 81.6543 2937.39 85.8535 2937.39 93.2754C2937.39 100.746 2941 104.994 2946.62 104.994C2951.67 104.994 2954.67 102.138 2954.77 97.6699H2947.1V92.1523H2961.85V96.5469C2961.85 105.824 2955.5 111.488 2946.57 111.488C2936.65 111.488 2929.92 104.555 2929.92 93.373C2929.92 81.8984 2937.09 75.1602 2946.42 75.1602C2954.38 75.1602 2960.53 80.043 2961.51 87.0254H2954.09ZM2989.54 75.6484V111H2982.22V75.6484H2989.54ZM3039.99 75.6484V111H3033.65L3018.12 88.5391H3017.83V111H3010.5V75.6484H3016.95L3032.38 98.1094H3032.72V75.6484H3039.99Z" fill="white"/>
<path d="M2772.98 239.648H2782.06L2791.88 263.623H2792.27L2802.08 239.648H2811.16V275H2804.03V251.855H2803.74L2794.51 274.854H2789.63L2780.4 251.758H2780.11V275H2772.98V239.648ZM2838.03 275H2830.12L2842.37 239.648H2851.8L2864 275H2856.14L2853.51 266.846H2840.71L2838.03 275ZM2842.57 261.133H2851.65L2847.21 247.607H2846.96L2842.57 261.133ZM2883.01 275V239.648H2896.88C2904.93 239.648 2909.52 244.189 2909.52 251.172C2909.52 256.006 2907.3 259.521 2903.27 261.23L2910.79 275H2902.69L2895.95 262.451H2890.33V275H2883.01ZM2890.33 256.494H2895.51C2899.85 256.494 2901.95 254.688 2901.95 251.172C2901.95 247.607 2899.85 245.654 2895.51 245.654H2890.33V256.494ZM2953.09 251.025C2952.11 247.705 2949.42 245.654 2945.57 245.654C2940.1 245.654 2936.39 249.854 2936.39 257.275C2936.39 264.746 2940 268.994 2945.62 268.994C2950.67 268.994 2953.67 266.138 2953.77 261.67H2946.1V256.152H2960.85V260.547C2960.85 269.824 2954.5 275.488 2945.57 275.488C2935.65 275.488 2928.92 268.555 2928.92 257.373C2928.92 245.898 2936.09 239.16 2945.42 239.16C2953.38 239.16 2959.53 244.043 2960.51 251.025H2953.09ZM2988.54 239.648V275H2981.22V239.648H2988.54ZM3038.99 239.648V275H3032.65L3017.12 252.539H3016.83V275H3009.5V239.648H3015.95L3031.38 262.109H3031.72V239.648H3038.99Z" fill="white"/>
<path d="M2772.98 321.648H2782.06L2791.88 345.623H2792.27L2802.08 321.648H2811.16V357H2804.03V333.855H2803.74L2794.51 356.854H2789.63L2780.4 333.758H2780.11V357H2772.98V321.648ZM2838.03 357H2830.12L2842.37 321.648H2851.8L2864 357H2856.14L2853.51 348.846H2840.71L2838.03 357ZM2842.57 343.133H2851.65L2847.21 329.607H2846.96L2842.57 343.133ZM2883.01 357V321.648H2896.88C2904.93 321.648 2909.52 326.189 2909.52 333.172C2909.52 338.006 2907.3 341.521 2903.27 343.23L2910.79 357H2902.69L2895.95 344.451H2890.33V357H2883.01ZM2890.33 338.494H2895.51C2899.85 338.494 2901.95 336.688 2901.95 333.172C2901.95 329.607 2899.85 327.654 2895.51 327.654H2890.33V338.494ZM2953.09 333.025C2952.11 329.705 2949.42 327.654 2945.57 327.654C2940.1 327.654 2936.39 331.854 2936.39 339.275C2936.39 346.746 2940 350.994 2945.62 350.994C2950.67 350.994 2953.67 348.138 2953.77 343.67H2946.1V338.152H2960.85V342.547C2960.85 351.824 2954.5 357.488 2945.57 357.488C2935.65 357.488 2928.92 350.555 2928.92 339.373C2928.92 327.898 2936.09 321.16 2945.42 321.16C2953.38 321.16 2959.53 326.043 2960.51 333.025H2953.09ZM2988.54 321.648V357H2981.22V321.648H2988.54ZM3038.99 321.648V357H3032.65L3017.12 334.539H3016.83V357H3009.5V321.648H3015.95L3031.38 344.109H3031.72V321.648H3038.99Z" fill="white"/>
<path d="M2772.98 403.648H2782.06L2791.88 427.623H2792.27L2802.08 403.648H2811.16V439H2804.03V415.855H2803.74L2794.51 438.854H2789.63L2780.4 415.758H2780.11V439H2772.98V403.648ZM2838.03 439H2830.12L2842.37 403.648H2851.8L2864 439H2856.14L2853.51 430.846H2840.71L2838.03 439ZM2842.57 425.133H2851.65L2847.21 411.607H2846.96L2842.57 425.133ZM2883.01 439V403.648H2896.88C2904.93 403.648 2909.52 408.189 2909.52 415.172C2909.52 420.006 2907.3 423.521 2903.27 425.23L2910.79 439H2902.69L2895.95 426.451H2890.33V439H2883.01ZM2890.33 420.494H2895.51C2899.85 420.494 2901.95 418.688 2901.95 415.172C2901.95 411.607 2899.85 409.654 2895.51 409.654H2890.33V420.494ZM2953.09 415.025C2952.11 411.705 2949.42 409.654 2945.57 409.654C2940.1 409.654 2936.39 413.854 2936.39 421.275C2936.39 428.746 2940 432.994 2945.62 432.994C2950.67 432.994 2953.67 430.138 2953.77 425.67H2946.1V420.152H2960.85V424.547C2960.85 433.824 2954.5 439.488 2945.57 439.488C2935.65 439.488 2928.92 432.555 2928.92 421.373C2928.92 409.898 2936.09 403.16 2945.42 403.16C2953.38 403.16 2959.53 408.043 2960.51 415.025H2953.09ZM2988.54 403.648V439H2981.22V403.648H2988.54ZM3038.99 403.648V439H3032.65L3017.12 416.539H3016.83V439H3009.5V403.648H3015.95L3031.38 426.109H3031.72V403.648H3038.99Z" fill="white"/>
<path d="M2773.98 485.648H2783.06L2792.88 509.623H2793.27L2803.08 485.648H2812.16V521H2805.03V497.855H2804.74L2795.51 520.854H2790.63L2781.4 497.758H2781.11V521H2773.98V485.648ZM2839.03 521H2831.12L2843.37 485.648H2852.8L2865 521H2857.14L2854.51 512.846H2841.71L2839.03 521ZM2843.57 507.133H2852.65L2848.21 493.607H2847.96L2843.57 507.133ZM2884.01 521V485.648H2897.88C2905.93 485.648 2910.52 490.189 2910.52 497.172C2910.52 502.006 2908.3 505.521 2904.27 507.23L2911.79 521H2903.69L2896.95 508.451H2891.33V521H2884.01ZM2891.33 502.494H2896.51C2900.85 502.494 2902.95 500.688 2902.95 497.172C2902.95 493.607 2900.85 491.654 2896.51 491.654H2891.33V502.494ZM2954.09 497.025C2953.11 493.705 2950.42 491.654 2946.57 491.654C2941.1 491.654 2937.39 495.854 2937.39 503.275C2937.39 510.746 2941 514.994 2946.62 514.994C2951.67 514.994 2954.67 512.138 2954.77 507.67H2947.1V502.152H2961.85V506.547C2961.85 515.824 2955.5 521.488 2946.57 521.488C2936.65 521.488 2929.92 514.555 2929.92 503.373C2929.92 491.898 2937.09 485.16 2946.42 485.16C2954.38 485.16 2960.53 490.043 2961.51 497.025H2954.09ZM2989.54 485.648V521H2982.22V485.648H2989.54ZM3039.99 485.648V521H3033.65L3018.12 498.539H3017.83V521H3010.5V485.648H3016.95L3032.38 508.109H3032.72V485.648H3039.99Z" fill="white"/>
<path d="M2190.98 169.648H2200.06L2209.88 193.623H2210.27L2220.08 169.648H2229.16V205H2222.03V181.855H2221.74L2212.51 204.854H2207.63L2198.4 181.758H2198.11V205H2190.98V169.648ZM2256.03 205H2248.12L2260.37 169.648H2269.8L2282 205H2274.14L2271.51 196.846H2258.71L2256.03 205ZM2260.57 191.133H2269.65L2265.21 177.607H2264.96L2260.57 191.133ZM2301.01 205V169.648H2314.88C2322.93 169.648 2327.52 174.189 2327.52 181.172C2327.52 186.006 2325.3 189.521 2321.27 191.23L2328.79 205H2320.69L2313.95 192.451H2308.33V205H2301.01ZM2308.33 186.494H2313.51C2317.85 186.494 2319.95 184.688 2319.95 181.172C2319.95 177.607 2317.85 175.654 2313.51 175.654H2308.33V186.494ZM2530.23 181.025C2529.25 177.705 2526.56 175.654 2522.71 175.654C2517.24 175.654 2513.53 179.854 2513.53 187.275C2513.53 194.746 2517.14 198.994 2522.76 198.994C2527.81 198.994 2530.81 196.138 2530.91 191.67H2523.24V186.152H2537.99V190.547C2537.99 199.824 2531.64 205.488 2522.71 205.488C2512.79 205.488 2506.06 198.555 2506.06 187.373C2506.06 175.898 2513.23 169.16 2522.56 169.16C2530.52 169.16 2536.67 174.043 2537.65 181.025H2530.23ZM2565.69 169.648V205H2558.36V169.648H2565.69ZM2616.13 169.648V205H2609.79L2594.26 182.539H2593.97V205H2586.64V169.648H2593.09L2608.52 192.109H2608.86V169.648H2616.13Z" fill="white"/>
<path d="M2280.98 87.6484H2290.06L2299.88 111.623H2300.27L2310.08 87.6484H2319.16V123H2312.03V99.8555H2311.74L2302.51 122.854H2297.63L2288.4 99.7578H2288.11V123H2280.98V87.6484ZM2346.03 123H2338.12L2350.37 87.6484H2359.8L2372 123H2364.14L2361.51 114.846H2348.71L2346.03 123ZM2350.57 109.133H2359.65L2355.21 95.6074H2354.96L2350.57 109.133ZM2391.01 123V87.6484H2404.88C2412.93 87.6484 2417.52 92.1895 2417.52 99.1719C2417.52 104.006 2415.3 107.521 2411.27 109.23L2418.79 123H2410.69L2403.95 110.451H2398.33V123H2391.01ZM2398.33 104.494H2403.51C2407.85 104.494 2409.95 102.688 2409.95 99.1719C2409.95 95.6074 2407.85 93.6543 2403.51 93.6543H2398.33V104.494ZM2461.09 99.0254C2460.11 95.7051 2457.42 93.6543 2453.57 93.6543C2448.1 93.6543 2444.39 97.8535 2444.39 105.275C2444.39 112.746 2448 116.994 2453.62 116.994C2458.67 116.994 2461.67 114.138 2461.77 109.67H2454.1V104.152H2468.85V108.547C2468.85 117.824 2462.5 123.488 2453.57 123.488C2443.65 123.488 2436.92 116.555 2436.92 105.373C2436.92 93.8984 2444.09 87.1602 2453.42 87.1602C2461.38 87.1602 2467.53 92.043 2468.51 99.0254H2461.09ZM2496.54 87.6484V123H2489.22V87.6484H2496.54ZM2546.99 87.6484V123H2540.65L2525.12 100.539H2524.83V123H2517.5V87.6484H2523.95L2539.38 110.109H2539.72V87.6484H2546.99Z" fill="white"/>
<path d="M2147.98 251.648H2157.06L2166.88 275.623H2167.27L2177.08 251.648H2186.16V287H2179.03V263.855H2178.74L2169.51 286.854H2164.63L2155.4 263.758H2155.11V287H2147.98V251.648ZM2213.03 287H2205.12L2217.37 251.648H2226.8L2239 287H2231.14L2228.51 278.846H2215.71L2213.03 287ZM2217.57 273.133H2226.65L2222.21 259.607H2221.96L2217.57 273.133ZM2258.01 287V251.648H2271.88C2279.93 251.648 2284.52 256.189 2284.52 263.172C2284.52 268.006 2282.3 271.521 2278.27 273.23L2285.79 287H2277.69L2270.95 274.451H2265.33V287H2258.01ZM2265.33 268.494H2270.51C2274.85 268.494 2276.95 266.688 2276.95 263.172C2276.95 259.607 2274.85 257.654 2270.51 257.654H2265.33V268.494ZM2540.27 263.025C2539.3 259.705 2536.61 257.654 2532.75 257.654C2527.29 257.654 2523.57 261.854 2523.57 269.275C2523.57 276.746 2527.19 280.994 2532.8 280.994C2537.86 280.994 2540.86 278.138 2540.96 273.67H2533.29V268.152H2548.04V272.547C2548.04 281.824 2541.69 287.488 2532.75 287.488C2522.84 287.488 2516.1 280.555 2516.1 269.373C2516.1 257.898 2523.28 251.16 2532.61 251.16C2540.57 251.16 2546.72 256.043 2547.7 263.025H2540.27ZM2575.73 251.648V287H2568.41V251.648H2575.73ZM2626.18 251.648V287H2619.83L2604.31 264.539H2604.01V287H2596.69V251.648H2603.13L2618.56 274.109H2618.91V251.648H2626.18Z" fill="white"/>
<path d="M2147.98 333.648H2157.06L2166.88 357.623H2167.27L2177.08 333.648H2186.16V369H2179.03V345.855H2178.74L2169.51 368.854H2164.63L2155.4 345.758H2155.11V369H2147.98V333.648ZM2213.03 369H2205.12L2217.37 333.648H2226.8L2239 369H2231.14L2228.51 360.846H2215.71L2213.03 369ZM2217.57 355.133H2226.65L2222.21 341.607H2221.96L2217.57 355.133ZM2258.01 369V333.648H2271.88C2279.93 333.648 2284.52 338.189 2284.52 345.172C2284.52 350.006 2282.3 353.521 2278.27 355.23L2285.79 369H2277.69L2270.95 356.451H2265.33V369H2258.01ZM2265.33 350.494H2270.51C2274.85 350.494 2276.95 348.688 2276.95 345.172C2276.95 341.607 2274.85 339.654 2270.51 339.654H2265.33V350.494ZM2434.18 345.025C2433.2 341.705 2430.52 339.654 2426.66 339.654C2421.19 339.654 2417.48 343.854 2417.48 351.275C2417.48 358.746 2421.09 362.994 2426.71 362.994C2431.76 362.994 2434.77 360.138 2434.86 355.67H2427.2V350.152H2441.94V354.547C2441.94 363.824 2435.6 369.488 2426.66 369.488C2416.75 369.488 2410.01 362.555 2410.01 351.373C2410.01 339.898 2417.19 333.16 2426.51 333.16C2434.47 333.16 2440.62 338.043 2441.6 345.025H2434.18ZM2469.64 333.648V369H2462.31V333.648H2469.64ZM2520.09 333.648V369H2513.74L2498.21 346.539H2497.92V369H2490.6V333.648H2497.04L2512.47 356.109H2512.81V333.648H2520.09Z" fill="white"/>
<path d="M2200.98 415.648H2210.06L2219.88 439.623H2220.27L2230.08 415.648H2239.16V451H2232.03V427.855H2231.74L2222.51 450.854H2217.63L2208.4 427.758H2208.11V451H2200.98V415.648ZM2266.03 451H2258.12L2270.37 415.648H2279.8L2292 451H2284.14L2281.51 442.846H2268.71L2266.03 451ZM2270.57 437.133H2279.65L2275.21 423.607H2274.96L2270.57 437.133ZM2311.01 451V415.648H2324.88C2332.93 415.648 2337.52 420.189 2337.52 427.172C2337.52 432.006 2335.3 435.521 2331.27 437.23L2338.79 451H2330.69L2323.95 438.451H2318.33V451H2311.01ZM2318.33 432.494H2323.51C2327.85 432.494 2329.95 430.688 2329.95 427.172C2329.95 423.607 2327.85 421.654 2323.51 421.654H2318.33V432.494ZM2540.23 427.025C2539.25 423.705 2536.56 421.654 2532.71 421.654C2527.24 421.654 2523.53 425.854 2523.53 433.275C2523.53 440.746 2527.14 444.994 2532.76 444.994C2537.81 444.994 2540.81 442.138 2540.91 437.67H2533.24V432.152H2547.99V436.547C2547.99 445.824 2541.64 451.488 2532.71 451.488C2522.79 451.488 2516.06 444.555 2516.06 433.373C2516.06 421.898 2523.23 415.16 2532.56 415.16C2540.52 415.16 2546.67 420.043 2547.65 427.025H2540.23ZM2575.69 415.648V451H2568.36V415.648H2575.69ZM2626.13 415.648V451H2619.79L2604.26 428.539H2603.97V451H2596.64V415.648H2603.09L2618.52 438.109H2618.86V415.648H2626.13Z" fill="white"/>
<path d="M2280.98 497.648H2290.06L2299.88 521.623H2300.27L2310.08 497.648H2319.16V533H2312.03V509.855H2311.74L2302.51 532.854H2297.63L2288.4 509.758H2288.11V533H2280.98V497.648ZM2346.03 533H2338.12L2350.37 497.648H2359.8L2372 533H2364.14L2361.51 524.846H2348.71L2346.03 533ZM2350.57 519.133H2359.65L2355.21 505.607H2354.96L2350.57 519.133ZM2391.01 533V497.648H2404.88C2412.93 497.648 2417.52 502.189 2417.52 509.172C2417.52 514.006 2415.3 517.521 2411.27 519.23L2418.79 533H2410.69L2403.95 520.451H2398.33V533H2391.01ZM2398.33 514.494H2403.51C2407.85 514.494 2409.95 512.688 2409.95 509.172C2409.95 505.607 2407.85 503.654 2403.51 503.654H2398.33V514.494ZM2461.09 509.025C2460.11 505.705 2457.42 503.654 2453.57 503.654C2448.1 503.654 2444.39 507.854 2444.39 515.275C2444.39 522.746 2448 526.994 2453.62 526.994C2458.67 526.994 2461.67 524.138 2461.77 519.67H2454.1V514.152H2468.85V518.547C2468.85 527.824 2462.5 533.488 2453.57 533.488C2443.65 533.488 2436.92 526.555 2436.92 515.373C2436.92 503.898 2444.09 497.16 2453.42 497.16C2461.38 497.16 2467.53 502.043 2468.51 509.025H2461.09ZM2496.54 497.648V533H2489.22V497.648H2496.54ZM2546.99 497.648V533H2540.65L2525.12 510.539H2524.83V533H2517.5V497.648H2523.95L2539.38 520.109H2539.72V497.648H2546.99Z" fill="white"/>
<path d="M1601.98 169.648H1611.06L1620.88 193.623H1621.27L1631.08 169.648H1640.16V205H1633.03V181.855H1632.74L1623.51 204.854H1618.63L1609.4 181.758H1609.11V205H1601.98V169.648ZM1667.03 205H1659.12L1671.37 169.648H1680.8L1693 205H1685.14L1682.51 196.846H1669.71L1667.03 205ZM1671.57 191.133H1680.65L1676.21 177.607H1675.96L1671.57 191.133ZM1712.01 205V169.648H1725.88C1733.93 169.648 1738.52 174.189 1738.52 181.172C1738.52 186.006 1736.3 189.521 1732.27 191.23L1739.79 205H1731.69L1724.95 192.451H1719.33V205H1712.01ZM1719.33 186.494H1724.51C1728.85 186.494 1730.95 184.688 1730.95 181.172C1730.95 177.607 1728.85 175.654 1724.51 175.654H1719.33V186.494ZM1835.13 181.025C1834.16 177.705 1831.47 175.654 1827.61 175.654C1822.14 175.654 1818.43 179.854 1818.43 187.275C1818.43 194.746 1822.05 198.994 1827.66 198.994C1832.72 198.994 1835.72 196.138 1835.82 191.67H1828.15V186.152H1842.9V190.547C1842.9 199.824 1836.55 205.488 1827.61 205.488C1817.7 205.488 1810.96 198.555 1810.96 187.373C1810.96 175.898 1818.14 169.16 1827.47 169.16C1835.43 169.16 1841.58 174.043 1842.55 181.025H1835.13ZM1870.59 169.648V205H1863.27V169.648H1870.59ZM1921.04 169.648V205H1914.69L1899.17 182.539H1898.87V205H1891.55V169.648H1897.99L1913.42 192.109H1913.77V169.648H1921.04Z" fill="white"/>
<path d="M1602.98 87.6484H1612.06L1621.88 111.623H1622.27L1632.08 87.6484H1641.16V123H1634.03V99.8555H1633.74L1624.51 122.854H1619.63L1610.4 99.7578H1610.11V123H1602.98V87.6484ZM1668.03 123H1660.12L1672.37 87.6484H1681.8L1694 123H1686.14L1683.51 114.846H1670.71L1668.03 123ZM1672.57 109.133H1681.65L1677.21 95.6074H1676.96L1672.57 109.133ZM1713.01 123V87.6484H1726.88C1734.93 87.6484 1739.52 92.1895 1739.52 99.1719C1739.52 104.006 1737.3 107.521 1733.27 109.23L1740.79 123H1732.69L1725.95 110.451H1720.33V123H1713.01ZM1720.33 104.494H1725.51C1729.85 104.494 1731.95 102.688 1731.95 99.1719C1731.95 95.6074 1729.85 93.6543 1725.51 93.6543H1720.33V104.494ZM1783.09 99.0254C1782.11 95.7051 1779.42 93.6543 1775.57 93.6543C1770.1 93.6543 1766.39 97.8535 1766.39 105.275C1766.39 112.746 1770 116.994 1775.62 116.994C1780.67 116.994 1783.67 114.138 1783.77 109.67H1776.1V104.152H1790.85V108.547C1790.85 117.824 1784.5 123.488 1775.57 123.488C1765.65 123.488 1758.92 116.555 1758.92 105.373C1758.92 93.8984 1766.09 87.1602 1775.42 87.1602C1783.38 87.1602 1789.53 92.043 1790.51 99.0254H1783.09ZM1818.54 87.6484V123H1811.22V87.6484H1818.54ZM1868.99 87.6484V123H1862.65L1847.12 100.539H1846.83V123H1839.5V87.6484H1845.95L1861.38 110.109H1861.72V87.6484H1868.99Z" fill="white"/>
<path d="M1601.98 251.648H1611.06L1620.88 275.623H1621.27L1631.08 251.648H1640.16V287H1633.03V263.855H1632.74L1623.51 286.854H1618.63L1609.4 263.758H1609.11V287H1601.98V251.648ZM1667.03 287H1659.12L1671.37 251.648H1680.8L1693 287H1685.14L1682.51 278.846H1669.71L1667.03 287ZM1671.57 273.133H1680.65L1676.21 259.607H1675.96L1671.57 273.133ZM1712.01 287V251.648H1725.88C1733.93 251.648 1738.52 256.189 1738.52 263.172C1738.52 268.006 1736.3 271.521 1732.27 273.23L1739.79 287H1731.69L1724.95 274.451H1719.33V287H1712.01ZM1719.33 268.494H1724.51C1728.85 268.494 1730.95 266.688 1730.95 263.172C1730.95 259.607 1728.85 257.654 1724.51 257.654H1719.33V268.494ZM1861.66 263.025C1860.68 259.705 1857.99 257.654 1854.14 257.654C1848.67 257.654 1844.96 261.854 1844.96 269.275C1844.96 276.746 1848.57 280.994 1854.19 280.994C1859.24 280.994 1862.24 278.138 1862.34 273.67H1854.67V268.152H1869.42V272.547C1869.42 281.824 1863.07 287.488 1854.14 287.488C1844.22 287.488 1837.49 280.555 1837.49 269.373C1837.49 257.898 1844.66 251.16 1853.99 251.16C1861.95 251.16 1868.1 256.043 1869.08 263.025H1861.66ZM1897.12 251.648V287H1889.79V251.648H1897.12ZM1947.56 251.648V287H1941.22L1925.69 264.539H1925.4V287H1918.07V251.648H1924.52L1939.95 274.109H1940.29V251.648H1947.56Z" fill="white"/>
<path d="M1601.98 333.648H1611.06L1620.88 357.623H1621.27L1631.08 333.648H1640.16V369H1633.03V345.855H1632.74L1623.51 368.854H1618.63L1609.4 345.758H1609.11V369H1601.98V333.648ZM1667.03 369H1659.12L1671.37 333.648H1680.8L1693 369H1685.14L1682.51 360.846H1669.71L1667.03 369ZM1671.57 355.133H1680.65L1676.21 341.607H1675.96L1671.57 355.133ZM1712.01 369V333.648H1725.88C1733.93 333.648 1738.52 338.189 1738.52 345.172C1738.52 350.006 1736.3 353.521 1732.27 355.23L1739.79 369H1731.69L1724.95 356.451H1719.33V369H1712.01ZM1719.33 350.494H1724.51C1728.85 350.494 1730.95 348.688 1730.95 345.172C1730.95 341.607 1728.85 339.654 1724.51 339.654H1719.33V350.494ZM1782.09 345.025C1781.11 341.705 1778.42 339.654 1774.57 339.654C1769.1 339.654 1765.39 343.854 1765.39 351.275C1765.39 358.746 1769 362.994 1774.62 362.994C1779.67 362.994 1782.67 360.138 1782.77 355.67H1775.1V350.152H1789.85V354.547C1789.85 363.824 1783.5 369.488 1774.57 369.488C1764.65 369.488 1757.92 362.555 1757.92 351.373C1757.92 339.898 1765.09 333.16 1774.42 333.16C1782.38 333.16 1788.53 338.043 1789.51 345.025H1782.09ZM1817.54 333.648V369H1810.22V333.648H1817.54ZM1867.99 333.648V369H1861.65L1846.12 346.539H1845.83V369H1838.5V333.648H1844.95L1860.38 356.109H1860.72V333.648H1867.99Z" fill="white"/>
<path d="M1601.98 415.648H1611.06L1620.88 439.623H1621.27L1631.08 415.648H1640.16V451H1633.03V427.855H1632.74L1623.51 450.854H1618.63L1609.4 427.758H1609.11V451H1601.98V415.648ZM1667.03 451H1659.12L1671.37 415.648H1680.8L1693 451H1685.14L1682.51 442.846H1669.71L1667.03 451ZM1671.57 437.133H1680.65L1676.21 423.607H1675.96L1671.57 437.133ZM1712.01 451V415.648H1725.88C1733.93 415.648 1738.52 420.189 1738.52 427.172C1738.52 432.006 1736.3 435.521 1732.27 437.23L1739.79 451H1731.69L1724.95 438.451H1719.33V451H1712.01ZM1719.33 432.494H1724.51C1728.85 432.494 1730.95 430.688 1730.95 427.172C1730.95 423.607 1728.85 421.654 1724.51 421.654H1719.33V432.494ZM1861.66 427.025C1860.68 423.705 1857.99 421.654 1854.14 421.654C1848.67 421.654 1844.96 425.854 1844.96 433.275C1844.96 440.746 1848.57 444.994 1854.19 444.994C1859.24 444.994 1862.24 442.138 1862.34 437.67H1854.67V432.152H1869.42V436.547C1869.42 445.824 1863.07 451.488 1854.14 451.488C1844.22 451.488 1837.49 444.555 1837.49 433.373C1837.49 421.898 1844.66 415.16 1853.99 415.16C1861.95 415.16 1868.1 420.043 1869.08 427.025H1861.66ZM1897.12 415.648V451H1889.79V415.648H1897.12ZM1947.56 415.648V451H1941.22L1925.69 428.539H1925.4V451H1918.07V415.648H1924.52L1939.95 438.109H1940.29V415.648H1947.56Z" fill="white"/>
<path d="M1602.98 497.648H1612.06L1621.88 521.623H1622.27L1632.08 497.648H1641.16V533H1634.03V509.855H1633.74L1624.51 532.854H1619.63L1610.4 509.758H1610.11V533H1602.98V497.648ZM1668.03 533H1660.12L1672.37 497.648H1681.8L1694 533H1686.14L1683.51 524.846H1670.71L1668.03 533ZM1672.57 519.133H1681.65L1677.21 505.607H1676.96L1672.57 519.133ZM1713.01 533V497.648H1726.88C1734.93 497.648 1739.52 502.189 1739.52 509.172C1739.52 514.006 1737.3 517.521 1733.27 519.23L1740.79 533H1732.69L1725.95 520.451H1720.33V533H1713.01ZM1720.33 514.494H1725.51C1729.85 514.494 1731.95 512.688 1731.95 509.172C1731.95 505.607 1729.85 503.654 1725.51 503.654H1720.33V514.494ZM1915.7 509.025C1914.73 505.705 1912.04 503.654 1908.18 503.654C1902.71 503.654 1899 507.854 1899 515.275C1899 522.746 1902.62 526.994 1908.23 526.994C1913.29 526.994 1916.29 524.138 1916.39 519.67H1908.72V514.152H1923.47V518.547C1923.47 527.824 1917.12 533.488 1908.18 533.488C1898.27 533.488 1891.53 526.555 1891.53 515.373C1891.53 503.898 1898.71 497.16 1908.04 497.16C1916 497.16 1922.15 502.043 1923.12 509.025H1915.7ZM1951.16 497.648V533H1943.84V497.648H1951.16ZM2001.61 497.648V533H1995.26L1979.74 510.539H1979.44V533H1972.12V497.648H1978.56L1993.99 520.109H1994.34V497.648H2001.61Z" fill="white"/>
<path d="M1092.98 87.6484H1102.06L1111.88 111.623H1112.27L1122.08 87.6484H1131.16V123H1124.03V99.8555H1123.74L1114.51 122.854H1109.63L1100.4 99.7578H1100.11V123H1092.98V87.6484ZM1158.03 123H1150.12L1162.37 87.6484H1171.8L1184 123H1176.14L1173.51 114.846H1160.71L1158.03 123ZM1162.57 109.133H1171.65L1167.21 95.6074H1166.96L1162.57 109.133ZM1203.01 123V87.6484H1216.88C1224.93 87.6484 1229.52 92.1895 1229.52 99.1719C1229.52 104.006 1227.3 107.521 1223.27 109.23L1230.79 123H1222.69L1215.95 110.451H1210.33V123H1203.01ZM1210.33 104.494H1215.51C1219.85 104.494 1221.95 102.688 1221.95 99.1719C1221.95 95.6074 1219.85 93.6543 1215.51 93.6543H1210.33V104.494ZM1273.09 99.0254C1272.11 95.7051 1269.42 93.6543 1265.57 93.6543C1260.1 93.6543 1256.39 97.8535 1256.39 105.275C1256.39 112.746 1260 116.994 1265.62 116.994C1270.67 116.994 1273.67 114.138 1273.77 109.67H1266.1V104.152H1280.85V108.547C1280.85 117.824 1274.5 123.488 1265.57 123.488C1255.65 123.488 1248.92 116.555 1248.92 105.373C1248.92 93.8984 1256.09 87.1602 1265.42 87.1602C1273.38 87.1602 1279.53 92.043 1280.51 99.0254H1273.09ZM1308.54 87.6484V123H1301.22V87.6484H1308.54ZM1358.99 87.6484V123H1352.65L1337.12 100.539H1336.83V123H1329.5V87.6484H1335.95L1351.38 110.109H1351.72V87.6484H1358.99Z" fill="white"/>
<path d="M1178.49 386.324H1183.03L1187.94 398.312H1188.13L1193.04 386.324H1197.58V404H1194.02V392.428H1193.87L1189.26 403.927H1186.81L1182.2 392.379H1182.05V404H1178.49V386.324ZM1211.01 404H1207.06L1213.19 386.324H1217.9L1224 404H1220.07L1218.75 399.923H1212.36L1211.01 404ZM1213.28 397.066H1217.83L1215.6 390.304H1215.48L1213.28 397.066ZM1233.5 404V386.324H1240.44C1244.47 386.324 1246.76 388.595 1246.76 392.086C1246.76 394.503 1245.65 396.261 1243.64 397.115L1247.4 404H1243.34L1239.97 397.726H1237.17V404H1233.5ZM1237.17 394.747H1239.75C1241.93 394.747 1242.98 393.844 1242.98 392.086C1242.98 390.304 1241.93 389.327 1239.75 389.327H1237.17V394.747ZM1268.54 392.013C1268.05 390.353 1266.71 389.327 1264.78 389.327C1262.05 389.327 1260.19 391.427 1260.19 395.138C1260.19 398.873 1262 400.997 1264.81 400.997C1267.33 400.997 1268.84 399.569 1268.88 397.335H1265.05V394.576H1272.42V396.773C1272.42 401.412 1269.25 404.244 1264.78 404.244C1259.83 404.244 1256.46 400.777 1256.46 395.187C1256.46 389.449 1260.05 386.08 1264.71 386.08C1268.69 386.08 1271.77 388.521 1272.25 392.013H1268.54ZM1286.27 386.324V404H1282.61V386.324H1286.27ZM1311.5 386.324V404H1308.32L1300.56 392.77H1300.41V404H1296.75V386.324H1299.97L1307.69 397.555H1307.86V386.324H1311.5Z" fill="white"/>
<path d="M1082.98 169.648H1092.06L1101.88 193.623H1102.27L1112.08 169.648H1121.16V205H1114.03V181.855H1113.74L1104.51 204.854H1099.63L1090.4 181.758H1090.11V205H1082.98V169.648ZM1148.03 205H1140.12L1152.37 169.648H1161.8L1174 205H1166.14L1163.51 196.846H1150.71L1148.03 205ZM1152.57 191.133H1161.65L1157.21 177.607H1156.96L1152.57 191.133ZM1193.01 205V169.648H1206.88C1214.93 169.648 1219.52 174.189 1219.52 181.172C1219.52 186.006 1217.3 189.521 1213.27 191.23L1220.79 205H1212.69L1205.95 192.451H1200.33V205H1193.01ZM1200.33 186.494H1205.51C1209.85 186.494 1211.95 184.688 1211.95 181.172C1211.95 177.607 1209.85 175.654 1205.51 175.654H1200.33V186.494ZM1289.61 181.025C1288.63 177.705 1285.95 175.654 1282.09 175.654C1276.62 175.654 1272.91 179.854 1272.91 187.275C1272.91 194.746 1276.52 198.994 1282.14 198.994C1287.19 198.994 1290.2 196.138 1290.29 191.67H1282.63V186.152H1297.37V190.547C1297.37 199.824 1291.03 205.488 1282.09 205.488C1272.18 205.488 1265.44 198.555 1265.44 187.373C1265.44 175.898 1272.62 169.16 1281.94 169.16C1289.9 169.16 1296.05 174.043 1297.03 181.025H1289.61ZM1325.07 169.648V205H1317.74V169.648H1325.07ZM1375.52 169.648V205H1369.17L1353.64 182.539H1353.35V205H1346.03V169.648H1352.47L1367.9 192.109H1368.24V169.648H1375.52Z" fill="white"/>
<path d="M1069.98 251.648H1079.06L1088.88 275.623H1089.27L1099.08 251.648H1108.16V287H1101.03V263.855H1100.74L1091.51 286.854H1086.63L1077.4 263.758H1077.11V287H1069.98V251.648ZM1135.03 287H1127.12L1139.37 251.648H1148.8L1161 287H1153.14L1150.51 278.846H1137.71L1135.03 287ZM1139.57 273.133H1148.65L1144.21 259.607H1143.96L1139.57 273.133ZM1180.01 287V251.648H1193.88C1201.93 251.648 1206.52 256.189 1206.52 263.172C1206.52 268.006 1204.3 271.521 1200.27 273.23L1207.79 287H1199.69L1192.95 274.451H1187.33V287H1180.01ZM1187.33 268.494H1192.51C1196.85 268.494 1198.95 266.688 1198.95 263.172C1198.95 259.607 1196.85 257.654 1192.51 257.654H1187.33V268.494ZM1303.13 263.025C1302.16 259.705 1299.47 257.654 1295.61 257.654C1290.14 257.654 1286.43 261.854 1286.43 269.275C1286.43 276.746 1290.05 280.994 1295.66 280.994C1300.72 280.994 1303.72 278.138 1303.82 273.67H1296.15V268.152H1310.9V272.547C1310.9 281.824 1304.55 287.488 1295.61 287.488C1285.7 287.488 1278.96 280.555 1278.96 269.373C1278.96 257.898 1286.14 251.16 1295.47 251.16C1303.43 251.16 1309.58 256.043 1310.55 263.025H1303.13ZM1338.59 251.648V287H1331.27V251.648H1338.59ZM1389.04 251.648V287H1382.69L1367.17 264.539H1366.87V287H1359.55V251.648H1365.99L1381.42 274.109H1381.77V251.648H1389.04Z" fill="white"/>
<path d="M1042.98 333.648H1052.06L1061.88 357.623H1062.27L1072.08 333.648H1081.16V369H1074.03V345.855H1073.74L1064.51 368.854H1059.63L1050.4 345.758H1050.11V369H1042.98V333.648ZM1108.03 369H1100.12L1112.37 333.648H1121.8L1134 369H1126.14L1123.51 360.846H1110.71L1108.03 369ZM1112.57 355.133H1121.65L1117.21 341.607H1116.96L1112.57 355.133ZM1153.01 369V333.648H1166.88C1174.93 333.648 1179.52 338.189 1179.52 345.172C1179.52 350.006 1177.3 353.521 1173.27 355.23L1180.79 369H1172.69L1165.95 356.451H1160.33V369H1153.01ZM1160.33 350.494H1165.51C1169.85 350.494 1171.95 348.688 1171.95 345.172C1171.95 341.607 1169.85 339.654 1165.51 339.654H1160.33V350.494ZM1329.18 345.025C1328.2 341.705 1325.52 339.654 1321.66 339.654C1316.19 339.654 1312.48 343.854 1312.48 351.275C1312.48 358.746 1316.09 362.994 1321.71 362.994C1326.76 362.994 1329.77 360.138 1329.86 355.67H1322.2V350.152H1336.94V354.547C1336.94 363.824 1330.6 369.488 1321.66 369.488C1311.75 369.488 1305.01 362.555 1305.01 351.373C1305.01 339.898 1312.19 333.16 1321.51 333.16C1329.47 333.16 1335.62 338.043 1336.6 345.025H1329.18ZM1364.64 333.648V369H1357.31V333.648H1364.64ZM1415.09 333.648V369H1408.74L1393.21 346.539H1392.92V369H1385.6V333.648H1392.04L1407.47 356.109H1407.81V333.648H1415.09Z" fill="white"/>
<path d="M1028.98 415.648H1038.06L1047.88 439.623H1048.27L1058.08 415.648H1067.16V451H1060.03V427.855H1059.74L1050.51 450.854H1045.63L1036.4 427.758H1036.11V451H1028.98V415.648ZM1094.03 451H1086.12L1098.37 415.648H1107.8L1120 451H1112.14L1109.51 442.846H1096.71L1094.03 451ZM1098.57 437.133H1107.65L1103.21 423.607H1102.96L1098.57 437.133ZM1139.01 451V415.648H1152.88C1160.93 415.648 1165.52 420.189 1165.52 427.172C1165.52 432.006 1163.3 435.521 1159.27 437.23L1166.79 451H1158.69L1151.95 438.451H1146.33V451H1139.01ZM1146.33 432.494H1151.51C1155.85 432.494 1157.95 430.688 1157.95 427.172C1157.95 423.607 1155.85 421.654 1151.51 421.654H1146.33V432.494ZM1341.7 427.025C1340.73 423.705 1338.04 421.654 1334.18 421.654C1328.71 421.654 1325 425.854 1325 433.275C1325 440.746 1328.62 444.994 1334.23 444.994C1339.29 444.994 1342.29 442.138 1342.39 437.67H1334.72V432.152H1349.47V436.547C1349.47 445.824 1343.12 451.488 1334.18 451.488C1324.27 451.488 1317.53 444.555 1317.53 433.373C1317.53 421.898 1324.71 415.16 1334.04 415.16C1342 415.16 1348.15 420.043 1349.12 427.025H1341.7ZM1377.16 415.648V451H1369.84V415.648H1377.16ZM1427.61 415.648V451H1421.26L1405.74 428.539H1405.44V451H1398.12V415.648H1404.56L1419.99 438.109H1420.34V415.648H1427.61Z" fill="white"/>
<path d="M1003.98 497.648H1013.06L1022.88 521.623H1023.27L1033.08 497.648H1042.16V533H1035.03V509.855H1034.74L1025.51 532.854H1020.63L1011.4 509.758H1011.11V533H1003.98V497.648ZM1069.03 533H1061.12L1073.37 497.648H1082.8L1095 533H1087.14L1084.51 524.846H1071.71L1069.03 533ZM1073.57 519.133H1082.65L1078.21 505.607H1077.96L1073.57 519.133ZM1114.01 533V497.648H1127.88C1135.93 497.648 1140.52 502.189 1140.52 509.172C1140.52 514.006 1138.3 517.521 1134.27 519.23L1141.79 533H1133.69L1126.95 520.451H1121.33V533H1114.01ZM1121.33 514.494H1126.51C1130.85 514.494 1132.95 512.688 1132.95 509.172C1132.95 505.607 1130.85 503.654 1126.51 503.654H1121.33V514.494ZM1369.75 509.025C1368.77 505.705 1366.09 503.654 1362.23 503.654C1356.76 503.654 1353.05 507.854 1353.05 515.275C1353.05 522.746 1356.66 526.994 1362.28 526.994C1367.33 526.994 1370.34 524.138 1370.43 519.67H1362.77V514.152H1377.51V518.547C1377.51 527.824 1371.17 533.488 1362.23 533.488C1352.32 533.488 1345.58 526.555 1345.58 515.373C1345.58 503.898 1352.76 497.16 1362.08 497.16C1370.04 497.16 1376.2 502.043 1377.17 509.025H1369.75ZM1405.21 497.648V533H1397.88V497.648H1405.21ZM1455.66 497.648V533H1449.31L1433.78 510.539H1433.49V533H1426.17V497.648H1432.61L1448.04 520.109H1448.38V497.648H1455.66Z" fill="white"/>
<path d="M45.9785 169.648H55.0605L64.875 193.623H65.2656L75.0801 169.648H84.1621V205H77.0332V181.855H76.7402L67.5117 204.854H62.6289L53.4004 181.758H53.1074V205H45.9785V169.648ZM111.027 205H103.117L115.373 169.648H124.797L137.004 205H129.143L126.506 196.846H113.713L111.027 205ZM115.568 191.133H124.65L120.207 177.607H119.963L115.568 191.133ZM156.008 205V169.648H169.875C177.932 169.648 182.521 174.189 182.521 181.172C182.521 186.006 180.3 189.521 176.271 191.23L183.791 205H175.686L168.947 192.451H163.332V205H156.008ZM163.332 186.494H168.508C172.854 186.494 174.953 184.688 174.953 181.172C174.953 177.607 172.854 175.654 168.508 175.654H163.332V186.494ZM279.133 181.025C278.156 177.705 275.471 175.654 271.613 175.654C266.145 175.654 262.434 179.854 262.434 187.275C262.434 194.746 266.047 198.994 271.662 198.994C276.716 198.994 279.719 196.138 279.816 191.67H272.15V186.152H286.896V190.547C286.896 199.824 280.549 205.488 271.613 205.488C261.701 205.488 254.963 198.555 254.963 187.373C254.963 175.898 262.141 169.16 271.467 169.16C279.426 169.16 285.578 174.043 286.555 181.025H279.133ZM314.592 169.648V205H307.268V169.648H314.592ZM365.041 169.648V205H358.693L343.166 182.539H342.873V205H335.549V169.648H341.994L357.424 192.109H357.766V169.648H365.041Z" fill="white"/>
<path d="M536.979 169.648H546.061L555.875 193.623H556.266L566.08 169.648H575.162V205H568.033V181.855H567.74L558.512 204.854H553.629L544.4 181.758H544.107V205H536.979V169.648ZM602.027 205H594.117L606.373 169.648H615.797L628.004 205H620.143L617.506 196.846H604.713L602.027 205ZM606.568 191.133H615.65L611.207 177.607H610.963L606.568 191.133ZM647.008 205V169.648H660.875C668.932 169.648 673.521 174.189 673.521 181.172C673.521 186.006 671.3 189.521 667.271 191.23L674.791 205H666.686L659.947 192.451H654.332V205H647.008ZM654.332 186.494H659.508C663.854 186.494 665.953 184.688 665.953 181.172C665.953 177.607 663.854 175.654 659.508 175.654H654.332V186.494ZM770.133 181.025C769.156 177.705 766.471 175.654 762.613 175.654C757.145 175.654 753.434 179.854 753.434 187.275C753.434 194.746 757.047 198.994 762.662 198.994C767.716 198.994 770.719 196.138 770.816 191.67H763.15V186.152H777.896V190.547C777.896 199.824 771.549 205.488 762.613 205.488C752.701 205.488 745.963 198.555 745.963 187.373C745.963 175.898 753.141 169.16 762.467 169.16C770.426 169.16 776.578 174.043 777.555 181.025H770.133ZM805.592 169.648V205H798.268V169.648H805.592ZM856.041 169.648V205H849.693L834.166 182.539H833.873V205H826.549V169.648H832.994L848.424 192.109H848.766V169.648H856.041Z" fill="white"/>
<path d="M46.9785 87.6484H56.0605L65.875 111.623H66.2656L76.0801 87.6484H85.1621V123H78.0332V99.8555H77.7402L68.5117 122.854H63.6289L54.4004 99.7578H54.1074V123H46.9785V87.6484ZM112.027 123H104.117L116.373 87.6484H125.797L138.004 123H130.143L127.506 114.846H114.713L112.027 123ZM116.568 109.133H125.65L121.207 95.6074H120.963L116.568 109.133ZM157.008 123V87.6484H170.875C178.932 87.6484 183.521 92.1895 183.521 99.1719C183.521 104.006 181.3 107.521 177.271 109.23L184.791 123H176.686L169.947 110.451H164.332V123H157.008ZM164.332 104.494H169.508C173.854 104.494 175.953 102.688 175.953 99.1719C175.953 95.6074 173.854 93.6543 169.508 93.6543H164.332V104.494ZM253.609 99.0254C252.633 95.7051 249.947 93.6543 246.09 93.6543C240.621 93.6543 236.91 97.8535 236.91 105.275C236.91 112.746 240.523 116.994 246.139 116.994C251.192 116.994 254.195 114.138 254.293 109.67H246.627V104.152H261.373V108.547C261.373 117.824 255.025 123.488 246.09 123.488C236.178 123.488 229.439 116.555 229.439 105.373C229.439 93.8984 236.617 87.1602 245.943 87.1602C253.902 87.1602 260.055 92.043 261.031 99.0254H253.609ZM289.068 87.6484V123H281.744V87.6484H289.068ZM339.518 87.6484V123H333.17L317.643 100.539H317.35V123H310.025V87.6484H316.471L331.9 110.109H332.242V87.6484H339.518Z" fill="white"/>
<path d="M564.979 87.6484H574.061L583.875 111.623H584.266L594.08 87.6484H603.162V123H596.033V99.8555H595.74L586.512 122.854H581.629L572.4 99.7578H572.107V123H564.979V87.6484ZM630.027 123H622.117L634.373 87.6484H643.797L656.004 123H648.143L645.506 114.846H632.713L630.027 123ZM634.568 109.133H643.65L639.207 95.6074H638.963L634.568 109.133ZM675.008 123V87.6484H688.875C696.932 87.6484 701.521 92.1895 701.521 99.1719C701.521 104.006 699.3 107.521 695.271 109.23L702.791 123H694.686L687.947 110.451H682.332V123H675.008ZM682.332 104.494H687.508C691.854 104.494 693.953 102.688 693.953 99.1719C693.953 95.6074 691.854 93.6543 687.508 93.6543H682.332V104.494ZM771.609 99.0254C770.633 95.7051 767.947 93.6543 764.09 93.6543C758.621 93.6543 754.91 97.8535 754.91 105.275C754.91 112.746 758.523 116.994 764.139 116.994C769.192 116.994 772.195 114.138 772.293 109.67H764.627V104.152H779.373V108.547C779.373 117.824 773.025 123.488 764.09 123.488C754.178 123.488 747.439 116.555 747.439 105.373C747.439 93.8984 754.617 87.1602 763.943 87.1602C771.902 87.1602 778.055 92.043 779.031 99.0254H771.609ZM807.068 87.6484V123H799.744V87.6484H807.068ZM857.518 87.6484V123H851.17L835.643 100.539H835.35V123H828.025V87.6484H834.471L849.9 110.109H850.242V87.6484H857.518Z" fill="white"/>
<path d="M45.9785 251.648H55.0605L64.875 275.623H65.2656L75.0801 251.648H84.1621V287H77.0332V263.855H76.7402L67.5117 286.854H62.6289L53.4004 263.758H53.1074V287H45.9785V251.648ZM111.027 287H103.117L115.373 251.648H124.797L137.004 287H129.143L126.506 278.846H113.713L111.027 287ZM115.568 273.133H124.65L120.207 259.607H119.963L115.568 273.133ZM156.008 287V251.648H169.875C177.932 251.648 182.521 256.189 182.521 263.172C182.521 268.006 180.3 271.521 176.271 273.23L183.791 287H175.686L168.947 274.451H163.332V287H156.008ZM163.332 268.494H168.508C172.854 268.494 174.953 266.688 174.953 263.172C174.953 259.607 172.854 257.654 168.508 257.654H163.332V268.494ZM305.656 263.025C304.68 259.705 301.994 257.654 298.137 257.654C292.668 257.654 288.957 261.854 288.957 269.275C288.957 276.746 292.57 280.994 298.186 280.994C303.239 280.994 306.242 278.138 306.34 273.67H298.674V268.152H313.42V272.547C313.42 281.824 307.072 287.488 298.137 287.488C288.225 287.488 281.486 280.555 281.486 269.373C281.486 257.898 288.664 251.16 297.99 251.16C305.949 251.16 312.102 256.043 313.078 263.025H305.656ZM341.115 251.648V287H333.791V251.648H341.115ZM391.564 251.648V287H385.217L369.689 264.539H369.396V287H362.072V251.648H368.518L383.947 274.109H384.289V251.648H391.564Z" fill="white"/>
<path d="M510.979 251.648H520.061L529.875 275.623H530.266L540.08 251.648H549.162V287H542.033V263.855H541.74L532.512 286.854H527.629L518.4 263.758H518.107V287H510.979V251.648ZM576.027 287H568.117L580.373 251.648H589.797L602.004 287H594.143L591.506 278.846H578.713L576.027 287ZM580.568 273.133H589.65L585.207 259.607H584.963L580.568 273.133ZM621.008 287V251.648H634.875C642.932 251.648 647.521 256.189 647.521 263.172C647.521 268.006 645.3 271.521 641.271 273.23L648.791 287H640.686L633.947 274.451H628.332V287H621.008ZM628.332 268.494H633.508C637.854 268.494 639.953 266.688 639.953 263.172C639.953 259.607 637.854 257.654 633.508 257.654H628.332V268.494ZM770.656 263.025C769.68 259.705 766.994 257.654 763.137 257.654C757.668 257.654 753.957 261.854 753.957 269.275C753.957 276.746 757.57 280.994 763.186 280.994C768.239 280.994 771.242 278.138 771.34 273.67H763.674V268.152H778.42V272.547C778.42 281.824 772.072 287.488 763.137 287.488C753.225 287.488 746.486 280.555 746.486 269.373C746.486 257.898 753.664 251.16 762.99 251.16C770.949 251.16 777.102 256.043 778.078 263.025H770.656ZM806.115 251.648V287H798.791V251.648H806.115ZM856.564 251.648V287H850.217L834.689 264.539H834.396V287H827.072V251.648H833.518L848.947 274.109H849.289V251.648H856.564Z" fill="white"/>
<path d="M45.9785 333.648H55.0605L64.875 357.623H65.2656L75.0801 333.648H84.1621V369H77.0332V345.855H76.7402L67.5117 368.854H62.6289L53.4004 345.758H53.1074V369H45.9785V333.648ZM111.027 369H103.117L115.373 333.648H124.797L137.004 369H129.143L126.506 360.846H113.713L111.027 369ZM115.568 355.133H124.65L120.207 341.607H119.963L115.568 355.133ZM156.008 369V333.648H169.875C177.932 333.648 182.521 338.189 182.521 345.172C182.521 350.006 180.3 353.521 176.271 355.23L183.791 369H175.686L168.947 356.451H163.332V369H156.008ZM163.332 350.494H168.508C172.854 350.494 174.953 348.688 174.953 345.172C174.953 341.607 172.854 339.654 168.508 339.654H163.332V350.494ZM332.18 345.025C331.203 341.705 328.518 339.654 324.66 339.654C319.191 339.654 315.48 343.854 315.48 351.275C315.48 358.746 319.094 362.994 324.709 362.994C329.763 362.994 332.766 360.138 332.863 355.67H325.197V350.152H339.943V354.547C339.943 363.824 333.596 369.488 324.66 369.488C314.748 369.488 308.01 362.555 308.01 351.373C308.01 339.898 315.188 333.16 324.514 333.16C332.473 333.16 338.625 338.043 339.602 345.025H332.18ZM367.639 333.648V369H360.314V333.648H367.639ZM418.088 333.648V369H411.74L396.213 346.539H395.92V369H388.596V333.648H395.041L410.471 356.109H410.812V333.648H418.088Z" fill="white"/>
<path d="M483.979 333.648H493.061L502.875 357.623H503.266L513.08 333.648H522.162V369H515.033V345.855H514.74L505.512 368.854H500.629L491.4 345.758H491.107V369H483.979V333.648ZM549.027 369H541.117L553.373 333.648H562.797L575.004 369H567.143L564.506 360.846H551.713L549.027 369ZM553.568 355.133H562.65L558.207 341.607H557.963L553.568 355.133ZM594.008 369V333.648H607.875C615.932 333.648 620.521 338.189 620.521 345.172C620.521 350.006 618.3 353.521 614.271 355.23L621.791 369H613.686L606.947 356.451H601.332V369H594.008ZM601.332 350.494H606.508C610.854 350.494 612.953 348.688 612.953 345.172C612.953 341.607 610.854 339.654 606.508 339.654H601.332V350.494ZM770.18 345.025C769.203 341.705 766.518 339.654 762.66 339.654C757.191 339.654 753.48 343.854 753.48 351.275C753.48 358.746 757.094 362.994 762.709 362.994C767.763 362.994 770.766 360.138 770.863 355.67H763.197V350.152H777.943V354.547C777.943 363.824 771.596 369.488 762.66 369.488C752.748 369.488 746.01 362.555 746.01 351.373C746.01 339.898 753.188 333.16 762.514 333.16C770.473 333.16 776.625 338.043 777.602 345.025H770.18ZM805.639 333.648V369H798.314V333.648H805.639ZM856.088 333.648V369H849.74L834.213 346.539H833.92V369H826.596V333.648H833.041L848.471 356.109H848.812V333.648H856.088Z" fill="white"/>
<path d="M45.9785 415.648H55.0605L64.875 439.623H65.2656L75.0801 415.648H84.1621V451H77.0332V427.855H76.7402L67.5117 450.854H62.6289L53.4004 427.758H53.1074V451H45.9785V415.648ZM111.027 451H103.117L115.373 415.648H124.797L137.004 451H129.143L126.506 442.846H113.713L111.027 451ZM115.568 437.133H124.65L120.207 423.607H119.963L115.568 437.133ZM156.008 451V415.648H169.875C177.932 415.648 182.521 420.189 182.521 427.172C182.521 432.006 180.3 435.521 176.271 437.23L183.791 451H175.686L168.947 438.451H163.332V451H156.008ZM163.332 432.494H168.508C172.854 432.494 174.953 430.688 174.953 427.172C174.953 423.607 172.854 421.654 168.508 421.654H163.332V432.494ZM358.703 427.025C357.727 423.705 355.041 421.654 351.184 421.654C345.715 421.654 342.004 425.854 342.004 433.275C342.004 440.746 345.617 444.994 351.232 444.994C356.286 444.994 359.289 442.138 359.387 437.67H351.721V432.152H366.467V436.547C366.467 445.824 360.119 451.488 351.184 451.488C341.271 451.488 334.533 444.555 334.533 433.373C334.533 421.898 341.711 415.16 351.037 415.16C358.996 415.16 365.148 420.043 366.125 427.025H358.703ZM394.162 415.648V451H386.838V415.648H394.162ZM444.611 415.648V451H438.264L422.736 428.539H422.443V451H415.119V415.648H421.564L436.994 438.109H437.336V415.648H444.611Z" fill="white"/>
<path d="M46.9785 497.648H56.0605L65.875 521.623H66.2656L76.0801 497.648H85.1621V533H78.0332V509.855H77.7402L68.5117 532.854H63.6289L54.4004 509.758H54.1074V533H46.9785V497.648ZM112.027 533H104.117L116.373 497.648H125.797L138.004 533H130.143L127.506 524.846H114.713L112.027 533ZM116.568 519.133H125.65L121.207 505.607H120.963L116.568 519.133ZM157.008 533V497.648H170.875C178.932 497.648 183.521 502.189 183.521 509.172C183.521 514.006 181.3 517.521 177.271 519.23L184.791 533H176.686L169.947 520.451H164.332V533H157.008ZM164.332 514.494H169.508C173.854 514.494 175.953 512.688 175.953 509.172C175.953 505.607 173.854 503.654 169.508 503.654H164.332V514.494ZM359.703 509.025C358.727 505.705 356.041 503.654 352.184 503.654C346.715 503.654 343.004 507.854 343.004 515.275C343.004 522.746 346.617 526.994 352.232 526.994C357.286 526.994 360.289 524.138 360.387 519.67H352.721V514.152H367.467V518.547C367.467 527.824 361.119 533.488 352.184 533.488C342.271 533.488 335.533 526.555 335.533 515.373C335.533 503.898 342.711 497.16 352.037 497.16C359.996 497.16 366.148 502.043 367.125 509.025H359.703ZM395.162 497.648V533H387.838V497.648H395.162ZM445.611 497.648V533H439.264L423.736 510.539H423.443V533H416.119V497.648H422.564L437.994 520.109H438.336V497.648H445.611Z" fill="white"/>
<path d="M457.979 415.648H467.061L476.875 439.623H477.266L487.08 415.648H496.162V451H489.033V427.855H488.74L479.512 450.854H474.629L465.4 427.758H465.107V451H457.979V415.648ZM523.027 451H515.117L527.373 415.648H536.797L549.004 451H541.143L538.506 442.846H525.713L523.027 451ZM527.568 437.133H536.65L532.207 423.607H531.963L527.568 437.133ZM568.008 451V415.648H581.875C589.932 415.648 594.521 420.189 594.521 427.172C594.521 432.006 592.3 435.521 588.271 437.23L595.791 451H587.686L580.947 438.451H575.332V451H568.008ZM575.332 432.494H580.508C584.854 432.494 586.953 430.688 586.953 427.172C586.953 423.607 584.854 421.654 580.508 421.654H575.332V432.494ZM770.703 427.025C769.727 423.705 767.041 421.654 763.184 421.654C757.715 421.654 754.004 425.854 754.004 433.275C754.004 440.746 757.617 444.994 763.232 444.994C768.286 444.994 771.289 442.138 771.387 437.67H763.721V432.152H778.467V436.547C778.467 445.824 772.119 451.488 763.184 451.488C753.271 451.488 746.533 444.555 746.533 433.373C746.533 421.898 753.711 415.16 763.037 415.16C770.996 415.16 777.148 420.043 778.125 427.025H770.703ZM806.162 415.648V451H798.838V415.648H806.162ZM856.611 415.648V451H850.264L834.736 428.539H834.443V451H827.119V415.648H833.564L848.994 438.109H849.336V415.648H856.611Z" fill="white"/>
<path d="M458.979 497.648H468.061L477.875 521.623H478.266L488.08 497.648H497.162V533H490.033V509.855H489.74L480.512 532.854H475.629L466.4 509.758H466.107V533H458.979V497.648ZM524.027 533H516.117L528.373 497.648H537.797L550.004 533H542.143L539.506 524.846H526.713L524.027 533ZM528.568 519.133H537.65L533.207 505.607H532.963L528.568 519.133ZM569.008 533V497.648H582.875C590.932 497.648 595.521 502.189 595.521 509.172C595.521 514.006 593.3 517.521 589.271 519.23L596.791 533H588.686L581.947 520.451H576.332V533H569.008ZM576.332 514.494H581.508C585.854 514.494 587.953 512.688 587.953 509.172C587.953 505.607 585.854 503.654 581.508 503.654H576.332V514.494ZM771.703 509.025C770.727 505.705 768.041 503.654 764.184 503.654C758.715 503.654 755.004 507.854 755.004 515.275C755.004 522.746 758.617 526.994 764.232 526.994C769.286 526.994 772.289 524.138 772.387 519.67H764.721V514.152H779.467V518.547C779.467 527.824 773.119 533.488 764.184 533.488C754.271 533.488 747.533 526.555 747.533 515.373C747.533 503.898 754.711 497.16 764.037 497.16C771.996 497.16 778.148 502.043 779.125 509.025H771.703ZM807.162 497.648V533H799.838V497.648H807.162ZM857.611 497.648V533H851.264L835.736 510.539H835.443V533H828.119V497.648H834.564L849.994 520.109H850.336V497.648H857.611Z" fill="white"/>
</svg>
