<svg width="794" height="744" viewBox="0 0 794 744" fill="none" xmlns="http://www.w3.org/2000/svg">
<path d="M0 203.885C0 -15.29 303.587 -96.5278 397 157.2C490.413 -96.5527 794 -15.3149 794 203.885C794 442.043 397 744 397 744C397 744 0 442.043 0 203.885Z" fill="#FFB3C1"/>
<path d="M147.574 346.578H158.473L170.25 375.348H170.719L182.496 346.578H193.395V389H184.84V361.227H184.488L173.414 388.824H167.555L156.48 361.109H156.129V389H147.574V346.578ZM261.633 389H252.141L266.848 346.578H278.156L292.805 389H283.371L280.207 379.215H264.855L261.633 389ZM267.082 372.359H277.98L272.648 356.129H272.355L267.082 372.359ZM351.609 389V346.578H368.25C377.918 346.578 383.426 352.027 383.426 360.406C383.426 366.207 380.76 370.426 375.926 372.477L384.949 389H375.223L367.137 373.941H360.398V389H351.609ZM360.398 366.793H366.609C371.824 366.793 374.344 364.625 374.344 360.406C374.344 356.129 371.824 353.785 366.609 353.785H360.398V366.793ZM471.703 360.23C470.531 356.246 467.309 353.785 462.68 353.785C456.117 353.785 451.664 358.824 451.664 367.73C451.664 376.695 456 381.793 462.738 381.793C468.803 381.793 472.406 378.365 472.523 373.004H463.324V366.383H481.02V371.656C481.02 382.789 473.402 389.586 462.68 389.586C450.785 389.586 442.699 381.266 442.699 367.848C442.699 354.078 451.312 345.992 462.504 345.992C472.055 345.992 479.438 351.852 480.609 360.23H471.703ZM550.254 346.578V389H541.465V346.578H550.254ZM646.793 346.578V389H639.176L620.543 362.047H620.191V389H611.402V346.578H619.137L637.652 373.531H638.062V346.578H646.793Z" fill="#2B2B2B"/>
<path d="M284.86 263.84C284.18 274.36 282.64 285.5 280.24 297.26C279.52 300.18 278.56 301.6 277.36 301.52C276.2 301.44 275.22 300.28 274.42 298.04C272.86 293.72 271.52 289.24 270.4 284.6C269.4 289.2 268.08 293.76 266.44 298.28C265.92 299.8 265.26 300.8 264.46 301.28C263.66 301.76 262.9 301.72 262.18 301.16C261.46 300.6 260.94 299.7 260.62 298.46C258.34 289.66 256.7 277.76 255.7 262.76C255.7 262.28 256.04 261.96 256.72 261.8C257.4 261.64 258.1 261.7 258.82 261.98C259.54 262.22 259.9 262.58 259.9 263.06C260.7 275.58 261.9 285.6 263.5 293.12C263.54 293.32 263.56 293.62 263.56 294.02C263.56 294.46 263.58 294.68 263.62 294.68C263.66 294.68 263.74 294.56 263.86 294.32C264.58 292.4 265.4 289.3 266.32 285.02C267.24 280.7 267.86 277.18 268.18 274.46C268.34 273.22 268.96 272.62 270.04 272.66C271.12 272.7 271.86 273.26 272.26 274.34C273.86 282.5 275.32 288.52 276.64 292.4C276.84 293.04 277.02 293.1 277.18 292.58C278.82 286.02 280.1 276 281.02 262.52C281.06 261.68 281.42 261.22 282.1 261.14C282.78 261.02 283.42 261.24 284.02 261.8C284.62 262.36 284.9 263.04 284.86 263.84ZM335.269 298.88C332.909 300.12 329.289 300.74 324.409 300.74C323.049 300.74 321.889 300.68 320.929 300.56C319.369 300.4 318.229 299.86 317.509 298.94C316.829 298.02 316.469 296.98 316.429 295.82C316.189 287.54 316.309 277.84 316.789 266.72C316.149 266.44 315.749 265.9 315.589 265.1C315.549 264.62 315.669 264.16 315.949 263.72C316.269 263.28 316.649 262.98 317.089 262.82C321.769 261.9 327.009 261.76 332.809 262.4C333.289 262.44 333.549 262.8 333.589 263.48C333.629 264.12 333.449 264.76 333.049 265.4C332.689 266.04 332.209 266.36 331.609 266.36C330.209 266.16 328.389 266.06 326.149 266.06C323.949 266.02 322.269 266.08 321.109 266.24C320.949 272.8 320.889 276.42 320.929 277.1C324.209 276.86 327.729 276.34 331.489 275.54C331.809 275.5 332.049 275.68 332.209 276.08C332.369 276.48 332.429 276.94 332.389 277.46C332.389 277.94 332.289 278.42 332.089 278.9C331.889 279.38 331.649 279.64 331.369 279.68C327.529 280.36 324.049 280.78 320.929 280.94C320.729 286.02 320.689 290.58 320.809 294.62C320.849 295.82 321.329 296.48 322.249 296.6C323.289 296.76 324.109 296.84 324.709 296.84C327.989 296.84 330.649 296.46 332.689 295.7C333.689 295.26 334.589 295.56 335.389 296.6C336.229 297.6 336.189 298.36 335.269 298.88ZM432.631 298.64C432.831 299.4 432.611 299.92 431.971 300.2C431.331 300.52 430.611 300.56 429.811 300.32C429.011 300.12 428.491 299.76 428.251 299.24C427.931 298.16 427.631 297.04 427.351 295.88C427.071 294.72 426.751 293.42 426.391 291.98C426.031 290.5 425.731 289.28 425.491 288.32C421.811 288.64 419.091 288.8 417.331 288.8C416.251 288.8 415.431 288.78 414.871 288.74C414.751 289.42 414.411 291.06 413.851 293.66C413.291 296.22 412.891 298.18 412.651 299.54C412.211 300.78 411.351 301.4 410.071 301.4C409.551 301.4 409.111 301.18 408.751 300.74C408.391 300.3 408.251 299.76 408.331 299.12C409.251 294.52 409.991 290.92 410.551 288.32H410.431C410.111 288.2 409.911 287.8 409.831 287.12C409.791 286.4 409.891 285.72 410.131 285.08C410.371 284.44 410.691 284.16 411.091 284.24H411.391C413.431 277.04 416.051 269.7 419.251 262.22C419.891 260.98 420.711 260.5 421.711 260.78C422.751 261.02 423.451 261.72 423.811 262.88C424.291 264.64 425.951 271.52 428.791 283.52L429.271 283.46C429.911 283.42 430.331 284.04 430.531 285.32C430.731 286.6 430.491 287.38 429.811 287.66C431.171 293.3 432.111 296.96 432.631 298.64ZM424.591 284.18C424.471 283.58 423.951 281.32 423.031 277.4C422.151 273.44 421.491 270.52 421.051 268.64C419.291 273.12 417.551 278.44 415.831 284.6C418.511 284.72 421.431 284.58 424.591 284.18ZM485.068 297.68C485.428 298.48 485.368 299.2 484.888 299.84C484.448 300.48 483.908 300.82 483.268 300.86C482.668 300.94 482.248 300.82 482.008 300.5C479.288 294.14 476.428 288.54 473.428 283.7C471.788 284.3 470.188 284.68 468.628 284.84C468.588 286.56 468.568 289.12 468.568 292.52C468.568 295.92 468.608 298.2 468.688 299.36C468.688 299.96 468.348 300.42 467.668 300.74C466.988 301.1 466.268 301.22 465.508 301.1C464.788 300.98 464.408 300.64 464.368 300.08C464.328 298.64 464.308 293.82 464.308 285.62C463.748 285.62 463.388 285 463.228 283.76C463.068 282.52 463.288 281.84 463.888 281.72H464.308C464.388 274.44 464.408 269.08 464.368 265.64C464.168 265.16 464.148 264.62 464.308 264.02C464.468 263.42 464.748 263 465.148 262.76C467.708 261.44 470.228 260.78 472.708 260.78C476.108 260.74 478.788 261.6 480.748 263.36C482.708 265.12 483.688 267.54 483.688 270.62C483.688 272.7 483.108 274.76 481.948 276.8C480.828 278.84 479.268 280.54 477.268 281.9C479.948 286.5 482.548 291.76 485.068 297.68ZM479.488 270.56C479.488 268.6 478.848 267.12 477.568 266.12C476.328 265.12 474.648 264.62 472.528 264.62C471.368 264.62 470.068 264.98 468.628 265.7C468.588 268.98 468.608 274.08 468.688 281C470.808 280.68 472.668 280.04 474.268 279.08C475.868 278.16 477.128 276.9 478.048 275.3C479.008 273.66 479.488 272.08 479.488 270.56ZM536.503 298.88C534.143 300.12 530.523 300.74 525.643 300.74C524.283 300.74 523.123 300.68 522.163 300.56C520.603 300.4 519.463 299.86 518.743 298.94C518.063 298.02 517.703 296.98 517.663 295.82C517.423 287.54 517.543 277.84 518.023 266.72C517.383 266.44 516.983 265.9 516.823 265.1C516.783 264.62 516.903 264.16 517.183 263.72C517.503 263.28 517.883 262.98 518.323 262.82C523.003 261.9 528.243 261.76 534.043 262.4C534.523 262.44 534.783 262.8 534.823 263.48C534.863 264.12 534.683 264.76 534.283 265.4C533.923 266.04 533.443 266.36 532.843 266.36C531.443 266.16 529.623 266.06 527.383 266.06C525.183 266.02 523.503 266.08 522.343 266.24C522.183 272.8 522.123 276.42 522.163 277.1C525.443 276.86 528.963 276.34 532.723 275.54C533.043 275.5 533.283 275.68 533.443 276.08C533.603 276.48 533.663 276.94 533.623 277.46C533.623 277.94 533.523 278.42 533.323 278.9C533.123 279.38 532.883 279.64 532.603 279.68C528.763 280.36 525.283 280.78 522.163 280.94C521.963 286.02 521.923 290.58 522.043 294.62C522.083 295.82 522.563 296.48 523.483 296.6C524.523 296.76 525.343 296.84 525.943 296.84C529.223 296.84 531.883 296.46 533.923 295.7C534.923 295.26 535.823 295.56 536.623 296.6C537.463 297.6 537.423 298.36 536.503 298.88Z" fill="#2B2B2B"/>
</svg>
