<svg xmlns="http://www.w3.org/2000/svg" viewBox="0 0 24 24" role="img" aria-hidden="true">
  <defs>
    <linearGradient id="ts-bg" x1="0%" y1="0%" x2="100%" y2="100%">
      <stop offset="0%" stop-color="#00B4FF"/>
      <stop offset="32%" stop-color="#00C853"/>
      <stop offset="66%" stop-color="#FF3D5C"/>
      <stop offset="100%" stop-color="#FFC928"/>
    </linearGradient>
  </defs>
  <rect width="24" height="24" rx="5.5" fill="url(#ts-bg)"/>
  <!-- T mark: five circles (Simple Icons Tistory geometry) -->
  <path fill="#ffffff" d="M0 3a3 3 0 1 0 6 0 3 3 0 0 0-6 0m9 18a3 3 0 1 0 6 0 3 3 0 0 0-6 0m0-9a3 3 0 1 0 6 0 3 3 0 0 0-6 0m0-9a3 3 0 1 0 6 0 3 3 0 0 0-6 0m9 0a3 3 0 1 0 6 0 3 3 0 0 0-6 0"/>
</svg>
